<svg width="308" height="723" viewBox="0 0 308 723" fill="none" xmlns="http://www.w3.org/2000/svg">
<g clip-path="url(#clip0_901_340)">
<path d="M199.987 177.432C199.987 160.713 213.448 147.166 230.061 147.166C244.7 147.166 256.9 157.705 259.559 171.666L282.176 272.232C285.767 288.152 275.87 304.016 260.08 307.685C244.289 311.355 228.498 301.533 224.743 285.641L200.591 183.585C200.179 181.571 199.96 179.502 199.96 177.377L199.987 177.432Z" fill="#F26522"/>
<path d="M281.107 311.852L298.761 395.45L271.429 399.671L244.097 322.115L281.107 311.852Z" fill="#F2A295"/>
<path d="M286.151 387.697C292.292 387.697 297.72 391.67 299.611 397.547L304.08 411.424C305.478 414.57 305.944 418.074 305.368 421.495L304.491 448.092C304.354 448.919 303.97 449.664 303.367 450.244C300.954 452.534 296.65 457.638 284.149 453.279C282.697 452.754 281.682 451.403 281.573 449.83L276.364 420.446L272.224 431.565C271.292 434.048 268.277 434.986 266.138 433.441C264.932 432.586 264.302 431.124 264.493 429.634L266.933 410.486C267.454 406.293 269.126 402.32 271.758 399.009L273.485 395.56C275.898 390.732 280.778 387.697 286.123 387.697H286.151Z" fill="#F2A295"/>
<path d="M241.465 348.574L225.291 288.014C221.7 272.094 231.596 256.23 247.387 252.56C263.178 248.891 278.968 258.713 282.724 274.605L297.363 336.241L241.465 348.602V348.574Z" fill="#F26522"/>
<path d="M241.465 348.574L236.394 329.592L292.84 317.176L297.363 336.214L241.465 348.574Z" fill="#EA4C22"/>
<path d="M108.012 177.432C108.012 160.713 94.552 147.166 77.9389 147.166C63.2997 147.166 51.1003 157.705 48.4411 171.666L25.8243 272.232C22.233 288.152 32.1296 304.016 47.9202 307.685C63.7109 311.355 79.5016 301.533 83.2573 285.641L107.409 183.585C107.821 181.571 108.04 179.502 108.04 177.377L108.012 177.432Z" fill="#F26522"/>
<path d="M26.866 311.852L9.23863 395.45L36.5707 399.671L63.9028 322.115L26.866 311.852Z" fill="#F2A295"/>
<path d="M21.8492 387.697C15.7084 387.697 10.2804 391.67 8.38878 397.547L3.92025 411.424C2.52212 414.57 2.05608 418.074 2.63178 421.495L3.50903 448.092C3.64611 448.919 4.02991 449.664 4.63302 450.244C7.04548 452.534 11.3495 457.638 23.8505 453.279C25.3034 452.754 26.3178 451.403 26.4274 449.83L31.6361 420.446L35.7757 431.565C36.7078 434.048 39.7234 434.986 41.8617 433.441C43.0679 432.586 43.6984 431.124 43.5065 429.634L41.0667 410.486C40.5458 406.293 38.8735 402.32 36.2417 399.009L34.5146 395.56C32.1022 390.732 27.2224 387.697 21.8766 387.697H21.8492Z" fill="#F2A295"/>
<path d="M66.5072 348.574L82.6816 288.014C86.2729 272.094 76.3763 256.23 60.5857 252.56C44.795 248.891 29.0044 258.713 25.2486 274.605L10.6093 336.241L66.5072 348.602V348.574Z" fill="#F26522"/>
<path d="M66.5072 348.574L71.5788 329.592L15.1327 317.176L10.6368 336.214L66.5072 348.574Z" fill="#EA4C22"/>
<path d="M239.409 148.683L179.317 129.95H124.269L69.2486 148.214L68.0972 334.2H239.409V148.683Z" fill="#F26522"/>
<path d="M70.3762 203.253L67.3606 203.263L67.7694 334.205L70.7849 334.195L70.3762 203.253Z" fill="#A83614"/>
<path d="M239.327 203.238L236.311 203.242L236.47 334.185L239.486 334.181L239.327 203.238Z" fill="#A83614"/>
<path d="M68.0972 334.2H239.409L237.381 440.201H70.8112L68.0972 334.2Z" fill="#1A3E73"/>
<path d="M238.916 344.877H68.5632V356.52H238.916V344.877Z" fill="black"/>
<path d="M170.874 338.476H134.577V363.197H170.874V338.476Z" fill="black"/>
<path d="M170.874 338.476H134.577V363.197H170.874V338.476Z" fill="black"/>
<path d="M107.574 343.277H98.9109V358.644H107.574V343.277Z" fill="#1A3E73"/>
<path d="M206.786 343.277H198.123V358.644H206.786V343.277Z" fill="#1A3E73"/>
<path d="M70.7838 410.321L72.4287 503.576C72.7851 523.44 88.8773 539.36 108.643 539.36C128.71 539.36 144.967 522.916 144.857 502.72L155.384 409.659C155.384 389.214 127.888 372.633 107.574 372.633C87.0131 372.633 70.4274 389.601 70.7838 410.321Z" fill="#1A3E73"/>
<path d="M136.304 665.75V713.73H56.0897V705.425C56.0897 699.714 58.7763 694.279 63.4368 691.051C67.3022 688.347 73.1688 686.112 81.9414 685.946V665.75H136.304Z" fill="#1A1A1A"/>
<path d="M136.277 713.73H53.8692V723H136.277V713.73Z" fill="black"/>
<path d="M81.914 684.429C81.914 684.429 100.912 683.463 109.246 695.493" stroke="white" stroke-width="0.43" stroke-miterlimit="10"/>
<path d="M74.9234 666.661H145.214L144.419 503.713C144.419 483.711 128.326 467.515 108.451 467.515C88.329 467.515 72.1271 484.124 72.4835 504.348L74.896 666.633L74.9234 666.661Z" fill="#1A3E73"/>
<path d="M145.049 637.995H70.8112V667.627H145.049V637.995Z" fill="#295588"/>
<path d="M237.518 410.321L235.873 503.576C235.516 523.44 219.424 539.36 199.659 539.36C179.591 539.36 163.335 522.916 163.444 502.72L154.617 412.169C154.617 391.725 180.414 372.633 200.728 372.633C221.288 372.633 237.874 389.601 237.518 410.321Z" fill="#1A3E73"/>
<path d="M171.998 665.75V713.73H252.212V705.425C252.212 699.714 249.525 694.279 244.865 691.051C240.999 688.347 235.133 686.112 226.36 685.946V665.75H171.998Z" fill="#1A1A1A"/>
<path d="M172.025 723H254.432V713.73H172.025V723Z" fill="black"/>
<path d="M226.36 684.429C226.36 684.429 207.362 683.463 199.028 695.493" stroke="white" stroke-width="0.43" stroke-miterlimit="10"/>
<path d="M233.378 666.661H163.088L163.883 503.713C163.883 483.711 179.975 467.515 199.85 467.515C219.973 467.515 236.174 484.124 235.818 504.348L233.406 666.633L233.378 666.661Z" fill="#1A3E73"/>
<path d="M163.252 667.627H237.49V637.995H163.252V667.627Z" fill="#295588"/>
<path d="M122.268 73.0311H178.385V133.205C178.385 148.739 165.857 161.347 150.422 161.347H150.258C134.824 161.347 122.295 148.739 122.295 133.205V73.0311H122.268Z" fill="#F2A295"/>
<path d="M122.268 98.3589C122.268 98.3589 137.702 127.246 155.357 125.839C182.634 123.659 178.111 89.6404 178.111 89.6404C178.111 89.6404 167.529 112.32 150.806 112.347C132.137 112.347 122.295 98.3589 122.295 98.3589H122.268Z" fill="#8D5F5E"/>
<path d="M126.298 14.9815C126.298 14.9815 139.237 -4.63514 164.486 1.02084C182.305 5.02141 188.062 20.9685 190.584 28.0316C191.544 30.7354 191.818 33.6324 191.325 36.4742L185.842 64.5334L159.908 21.0789L134.796 23.093L126.298 15.009V14.9815Z" fill="#859094"/>
<path d="M185.76 64.5334C185.76 64.5334 189.104 59.2912 195.875 61.8571C202.619 64.423 199.576 80.9219 189.433 83.0464C189.433 83.0464 185.814 83.8465 182.963 81.3358C182.963 81.3358 185.376 69.1409 185.76 64.5334Z" fill="#F2A295"/>
<path d="M194.532 67.7062C194.532 67.7062 188.885 65.8025 184.855 74.1899" stroke="#D16665" stroke-width="0.52" stroke-linecap="round" stroke-linejoin="round"/>
<path d="M187.596 70.079C187.596 70.079 193.737 73.3898 189.68 78.356" stroke="#D16665" stroke-width="0.52" stroke-linecap="round" stroke-linejoin="round"/>
<path d="M116.73 64.5334C116.73 64.5334 113.468 59.2912 106.697 61.8571C99.9526 64.423 102.996 80.9219 113.139 83.0464C113.139 83.0464 116.758 83.8465 119.609 81.3358C119.609 81.3358 117.114 69.1409 116.73 64.5334Z" fill="#F2A295"/>
<path d="M108.04 67.7062C108.04 67.7062 113.687 65.8025 117.717 74.1899" stroke="#D16665" stroke-width="0.52" stroke-linecap="round" stroke-linejoin="round"/>
<path d="M114.976 70.079C114.976 70.079 108.835 73.3898 112.892 78.356" stroke="#D16665" stroke-width="0.52" stroke-linecap="round" stroke-linejoin="round"/>
<path d="M186.527 48.8898C186.527 58.8498 185.568 79.6528 179.482 92.0132C173.779 103.601 164.349 109.864 151.958 110.223C139.566 110.581 130.383 105.808 122.981 90.744C115.606 75.6798 115.935 49.0829 115.935 49.0829C115.935 49.0829 115.935 13.5468 150.834 13.5468C187.596 13.5468 186.5 48.8898 186.5 48.8898H186.527Z" fill="#F2A295"/>
<path d="M116.73 64.5334L109.877 35.5361C109.52 32.9978 109.877 30.4044 110.946 28.0592C113.605 22.2377 117.745 12.1397 126.298 14.9815L134.796 23.0654C134.796 23.0654 121.829 25.6864 116.648 42.7648L116.758 64.5334H116.73Z" fill="#859094"/>
<path d="M189.351 43.5097C189.351 43.5097 185.403 13.4088 166.24 11.2568C147.078 9.13235 131.04 17.6577 131.04 17.6577L127.038 20.665C127.038 20.665 127.696 21.4651 128.984 22.7343C113.715 24.1966 115.963 47.0964 115.963 47.0964C125.229 40.0057 125.969 33.7428 128.436 29.0248C137.373 36.3638 160.84 45.2479 189.351 43.5373V43.5097Z" fill="#859094"/>
<path d="M189.817 38.709L184.279 37.0536C185.65 50.1589 184.06 60.5052 183.045 65.4163C182.278 68.5891 178.933 80.2598 169.75 86.6331C169.75 86.6331 164.184 78.632 151.217 78.632C138.25 78.632 132.768 86.6331 132.768 86.6331C125.558 81.6393 121.939 73.3622 120.349 68.4788C120.184 67.9546 116.483 55.1251 118.375 37.0536L112.837 38.709L116.374 64.4506L117.169 82.7429C121.144 117.065 151.217 115.465 151.217 115.465C151.217 115.465 181.236 117.313 185.293 82.7429L186.143 64.4782L189.817 38.7366V38.709Z" fill="#859094"/>
<path d="M148.75 56.0632V72.0379C148.75 72.3966 148.805 72.7277 148.942 73.0311C149.436 74.2451 150.806 74.8245 152.067 74.4934L154.781 73.7761" stroke="#D16665" stroke-width="0.52" stroke-linecap="round" stroke-linejoin="round"/>
<path d="M137.483 60.3673C137.483 62.74 136.277 64.6713 134.796 64.6713C133.316 64.6713 132.11 62.74 132.11 60.3673C132.11 57.9945 133.316 56.0632 134.796 56.0632C136.277 56.0632 137.483 57.9945 137.483 60.3673Z" fill="#1A1A1A"/>
<path d="M168.461 60.3673C168.461 62.74 167.255 64.6713 165.774 64.6713C164.294 64.6713 163.088 62.74 163.088 60.3673C163.088 57.9945 164.294 56.0632 165.774 56.0632C167.255 56.0632 168.461 57.9945 168.461 60.3673Z" fill="#1A1A1A"/>
<path d="M154.644 47.8965L178.687 54.1595C178.687 54.1595 177.59 47.3723 167.748 44.9168C157.907 42.4613 154.644 47.9241 154.644 47.9241V47.8965Z" fill="#1A1A1A"/>
<path d="M145.899 47.8965L121.857 54.1595C121.857 54.1595 122.953 47.3723 132.795 44.9168C142.637 42.4613 145.899 47.9241 145.899 47.9241V47.8965Z" fill="#1A1A1A"/>
<path d="M140.91 85.6399H161.498C161.498 85.6399 158.674 91.5441 150.285 91.5441C141.897 91.5441 140.882 85.6399 140.882 85.6399H140.91Z" fill="white"/>
<path d="M178.741 129.563C178.741 129.563 184.279 127.715 191.9 131.44C192.174 133.564 197.931 172.908 189.981 175.004C189.981 175.004 178.358 164.106 161.333 159.499C174.492 149.759 178.741 129.536 178.741 129.536V129.563Z" fill="#EA4C22"/>
<path d="M122.268 130.253C122.268 130.253 112.262 131.081 108.616 133.316C108.396 135.44 103.983 173.984 111.96 175.942C111.96 175.942 123.364 164.796 140.279 159.857C126.928 150.422 122.268 130.281 122.268 130.281V130.253Z" fill="#EA4C22"/>
<path d="M144.885 183.612L144.254 164.051L146.749 163.968L147.379 183.53L144.885 183.612Z" fill="#A83614"/>
<path d="M153.219 178.315C153.219 179.308 152.451 180.109 151.464 180.109C150.477 180.109 149.71 179.308 149.71 178.315C149.71 177.322 150.477 176.522 151.464 176.522C152.451 176.522 153.219 177.322 153.219 178.315Z" fill="#D1D3D4"/>
<path d="M153.027 170.783C153.027 171.776 152.259 172.576 151.272 172.576C150.285 172.576 149.518 171.776 149.518 170.783C149.518 169.79 150.285 168.99 151.272 168.99C152.259 168.99 153.027 169.79 153.027 170.783Z" fill="#D1D3D4"/>
<path d="M206.403 203.698H197.767V206.071H206.403V203.698Z" fill="white"/>
<path d="M215.888 199.532H197.767V201.905H215.888V199.532Z" fill="white"/>
<path d="M224.825 195.393H197.767V197.766H224.825V195.393Z" fill="white"/>
<path d="M195.766 195.228H184.992V206.319H195.766V195.228Z" fill="white"/>
<path d="M194.642 196.387H186.116V205.16H194.642V196.387Z" fill="#F26522"/>
<path d="M61.4629 386.869C61.1888 386.869 60.9146 386.869 60.6405 386.869C59.9003 386.786 59.1601 386.538 58.3377 386.069L57.8717 385.793L57.4056 385.517C57.4056 385.517 57.2411 385.379 57.1315 385.324C56.5558 384.938 55.9252 384.469 55.514 383.779C54.8561 382.676 54.9383 381.213 55.7059 379.779C54.4449 377.626 55.3221 374.895 56.5832 373.102C57.1589 372.274 57.7346 371.501 58.3103 370.729C59.5713 369.046 60.7776 367.418 61.7371 365.459C62.6417 363.583 64.0673 360.245 64.2318 359.831C64.3963 359.417 64.8075 359.224 65.2187 359.389C65.6299 359.555 68.1246 360.548 69.2212 361.045C70.2629 361.514 70.4822 363.224 70.0436 367.832C70.0162 368.135 69.9888 368.384 69.9888 368.494C69.8791 370.784 69.7146 373.102 69.5502 375.364C69.4679 376.413 69.4131 377.461 69.3308 378.537C69.276 379.558 69.1664 380.827 68.5632 381.931C67.8231 383.227 66.3975 384.11 64.6704 384.331C64.5882 384.607 64.5059 384.91 64.3414 385.214C63.7931 386.207 62.6966 386.842 61.3807 386.924L61.4629 386.869ZM59.9826 377.351C59.9826 377.351 60.3115 377.627 60.805 377.958C61.8467 378.647 62.9433 379.309 63.848 379.447C63.9302 379.447 64.0125 379.447 64.1221 379.447C64.2866 379.447 64.3963 379.42 64.4511 379.392C64.5059 379.089 64.5607 378.482 64.5607 378.206C64.6156 377.268 64.7801 374.923 64.7801 374.923C64.9171 373.074 65.0268 371.253 65.1364 369.432C64.2044 370.977 63.19 372.329 62.2031 373.653L62.1209 373.764C61.6 374.454 61.0791 375.171 60.5583 375.916C60.0922 376.606 59.9551 377.157 59.9277 377.378L59.9826 377.351Z" fill="black"/>
<path d="M68.9745 361.735C68.1246 361.376 66.2604 360.603 65.4106 360.272C65.1364 360.162 64.8897 360.272 64.8075 360.548C64.1769 362.341 63.2997 364.08 62.4498 365.79C60.9969 368.742 59.0505 370.894 57.2137 373.543C56.0349 375.254 55.3221 377.599 56.3639 379.392C56.4461 379.53 56.5283 379.641 56.6106 379.751C55.8978 380.854 55.514 382.289 56.172 383.42C56.5009 383.972 57.0218 384.358 57.5701 384.717C57.7072 384.827 57.8717 384.91 58.0361 385.021L58.8311 383.531C58.8311 383.531 58.6118 383.393 58.5022 383.338C58.1458 383.117 57.762 382.841 57.6249 382.565C57.433 382.234 57.5427 381.599 57.8717 380.965C58.091 381.13 58.2829 381.268 58.5022 381.406C59.7358 382.234 61.0243 383.007 62.4498 383.365C62.4224 383.614 62.3676 383.834 62.2854 383.972C62.1483 384.22 61.7371 384.414 61.271 384.441C61.1614 384.441 61.0243 384.441 60.9146 384.441C60.3389 384.358 59.7632 384.11 59.1875 383.751L58.4199 385.241C59.1327 385.655 59.9003 386.014 60.7227 386.097C61.8741 386.235 63.1626 385.793 63.7383 384.8C63.9576 384.414 64.0399 384 64.0947 383.586C65.6573 383.558 67.2199 382.896 67.9601 381.544C68.481 380.634 68.5632 379.53 68.6181 378.482C68.8374 375.143 69.1115 371.805 69.276 368.467C69.3308 367.611 70.0162 362.231 68.9745 361.762V361.735ZM66.0411 367.418C66.0137 367.804 65.9863 368.108 65.9589 368.273C65.8492 370.481 65.6847 372.771 65.5477 374.95C65.5477 374.95 65.3832 377.295 65.3283 378.233C65.3009 378.785 65.2461 379.585 65.0816 379.861C65.0268 379.972 64.6978 380.165 64.1495 380.192C64.0125 380.192 63.8754 380.192 63.7383 380.192C62.6417 380.054 61.4629 379.337 60.3389 378.592C60.0648 378.399 59.3794 377.958 59.215 377.682C59.0779 377.433 59.215 376.495 59.9277 375.447C60.4486 374.702 60.9695 373.985 61.5178 373.267L61.6 373.184C62.9433 371.419 64.314 369.57 65.438 367.253C65.6847 366.728 65.9315 366.232 66.1782 365.708C66.1508 366.177 66.0959 366.756 66.0411 367.418Z" fill="#EA4C22"/>
<path d="M70.3178 357.099C70.1533 357.099 69.9888 357.099 69.8243 357.017C69.276 356.796 68.0424 356.299 67.4941 356.051C66.562 355.637 66.5346 354.147 66.8087 351.361C66.8087 351.167 66.8361 351.03 66.8361 350.947C66.9184 349.457 67.0006 347.967 67.1103 346.477C67.1651 345.787 67.2199 345.098 67.2474 344.408C67.3022 343.718 67.357 342.863 67.7682 342.09C68.2617 341.207 69.1938 340.6 70.3178 340.435C70.3726 340.297 70.4274 340.131 70.5097 339.966C70.9209 339.249 71.7159 338.78 72.648 338.724C72.8399 338.724 73.0318 338.724 73.2237 338.724C73.6623 338.78 74.1009 338.917 74.567 339.138L75.1153 339.469L75.6087 339.773C75.9925 340.049 76.4312 340.38 76.7053 340.876C77.1439 341.649 77.1165 342.642 76.6505 343.608C77.4181 345.098 76.8424 346.891 75.9925 348.105C75.6087 348.657 75.2249 349.153 74.8685 349.65C74.0461 350.754 73.2785 351.774 72.6754 353.016L72.5383 353.292C72.0449 354.285 71.5514 355.306 71.1676 356.354C71.0305 356.768 70.6741 357.044 70.2629 357.072L70.3178 357.099ZM70.9757 344.104C70.9757 344.298 70.9483 344.546 70.9483 344.656L70.8112 346.781C70.7564 347.608 70.7016 348.464 70.6467 349.291C71.0854 348.629 71.6062 347.912 72.0723 347.332C72.4013 346.891 72.7302 346.45 73.0592 345.981C73.2511 345.677 73.3608 345.429 73.3882 345.291C73.3059 345.236 73.1963 345.153 73.0044 345.015C72.4012 344.601 71.6885 344.16 71.1402 344.104C71.1128 344.104 71.0579 344.104 71.0305 344.104H70.9757Z" fill="black"/>
<path d="M67.7956 355.334C68.3439 355.582 69.5502 356.079 70.0984 356.299C70.2629 356.382 70.4274 356.299 70.4822 356.134C70.8935 354.947 71.4692 353.844 72.0174 352.713C72.9495 350.809 74.238 349.402 75.4168 347.664C76.1844 346.56 76.6505 345.042 75.9651 343.856C75.9103 343.773 75.8555 343.691 75.8006 343.635C76.2667 342.918 76.5134 341.98 76.1022 341.263C75.8829 340.904 75.5539 340.656 75.1975 340.407C75.0879 340.352 75.0056 340.269 74.896 340.214L74.3751 341.18C74.3751 341.18 74.5121 341.263 74.5944 341.318C74.8137 341.483 75.0604 341.649 75.1701 341.814C75.3072 342.035 75.2249 342.449 75.0056 342.863C74.8685 342.752 74.7315 342.67 74.5944 342.559C73.7994 342.035 72.9495 341.511 72.0174 341.29C72.0174 341.125 72.0723 340.987 72.1271 340.904C72.2093 340.738 72.4835 340.6 72.785 340.6C72.8673 340.6 72.9495 340.6 73.0318 340.6C73.4156 340.656 73.772 340.821 74.1558 341.042L74.6766 340.076C74.2106 339.8 73.7171 339.58 73.1688 339.524C72.4287 339.442 71.5788 339.718 71.2224 340.38C71.0854 340.628 71.0305 340.904 70.9757 341.18C69.9614 341.18 68.947 341.649 68.4536 342.504C68.1246 343.111 68.0698 343.801 68.015 344.491C67.8779 346.67 67.686 348.822 67.6037 351.002C67.6037 351.554 67.1103 355.058 67.7956 355.361V355.334ZM69.7146 351.637C69.7146 351.388 69.7421 351.195 69.7695 351.085C69.8517 349.65 69.934 348.16 70.0436 346.753C70.0436 346.753 70.1533 345.236 70.1807 344.629C70.1807 344.27 70.2355 343.746 70.3452 343.58C70.3726 343.525 70.5919 343.387 70.9483 343.359C71.0305 343.359 71.1402 343.359 71.2224 343.359C71.9352 343.442 72.7028 343.911 73.4156 344.408C73.6075 344.546 74.0461 344.822 74.1284 345.015C74.2106 345.18 74.1284 345.787 73.6623 346.477C73.3333 346.974 72.9769 347.443 72.648 347.884L72.5931 347.939C71.7159 349.098 70.8386 350.285 70.0984 351.774C69.934 352.106 69.7695 352.437 69.605 352.795C69.605 352.492 69.6598 352.106 69.6872 351.664L69.7146 351.637Z" fill="#EA4C22"/>
<path d="M64.7252 371.805C64.7252 371.805 64.5333 371.805 64.4511 371.805C63.985 371.695 63.7109 371.198 63.848 370.757C66.7813 359.665 68.7003 352.988 69.605 349.788C69.934 348.684 70.0984 348.05 70.1533 347.829C70.2629 347.36 70.729 347.057 71.1676 347.195C71.6336 347.305 71.9078 347.774 71.7981 348.215C71.7433 348.436 71.5514 349.098 71.2224 350.257C70.3178 353.457 68.3988 360.134 65.4654 371.198C65.3558 371.557 65.0542 371.805 64.6978 371.833L64.7252 371.805Z" fill="black"/>
<path d="M64.1495 367.832C63.4093 367.611 62.9981 366.839 63.2449 366.121C63.4916 365.404 64.314 365.018 65.0542 365.238L67.357 365.956C68.0972 366.177 68.5084 366.949 68.2617 367.666C68.015 368.384 67.1925 368.77 66.4523 368.549L64.1495 367.832Z" fill="black"/>
<path d="M66.6716 367.998L64.3688 367.28C63.9302 367.142 63.6835 366.701 63.848 366.287C63.985 365.873 64.4511 365.652 64.8897 365.763L67.1925 366.48C67.6312 366.618 67.8779 367.059 67.7134 367.473C67.5763 367.887 67.1103 368.108 66.6716 367.998Z" fill="#EA4C22"/>
<path d="M68.5632 351.719C67.8231 351.499 67.4118 350.726 67.6586 350.009C67.9053 349.291 68.7277 348.905 69.4679 349.126L71.7707 349.843C72.5109 350.064 72.9221 350.836 72.6754 351.554C72.4287 352.271 71.6062 352.657 70.866 352.437L68.5632 351.719Z" fill="black"/>
<path d="M71.0579 351.885L68.7551 351.168C68.3165 351.03 68.0698 350.588 68.2343 350.174C68.3713 349.76 68.8374 349.54 69.276 349.65L71.5788 350.367C72.0174 350.505 72.2642 350.947 72.0997 351.361C71.9626 351.774 71.4966 351.995 71.0579 351.885Z" fill="#EA4C22"/>
</g>
<defs>
<clipPath id="clip0_901_340">
<rect width="308" height="723" fill="white"/>
</clipPath>
</defs>
</svg>
