<svg width="120" height="120" viewBox="0 0 120 120" fill="none" xmlns="http://www.w3.org/2000/svg">
<rect width="120" height="120" rx="60" fill="white"/>
<g clip-path="url(#clip0_906_5543)">
<path d="M26.9447 90.4615C26.933 90.4615 26.9213 90.4615 26.9096 90.4615C26.657 90.4475 26.4441 90.2825 26.3692 90.0408L27.4219 89.7108C27.3611 89.5179 27.181 89.3808 26.9751 89.3668C26.7997 89.3599 26.6453 89.4389 26.5845 89.569L27.0874 89.7945L26.5728 89.5992L33.0714 72.7502L27.5716 58.9852C27.3728 59.0247 27.2067 58.9921 27.1131 58.9619C26.5564 58.7853 26.2757 58.1439 26.2499 57.621C26.2242 57.1213 26.4324 56.7286 26.8067 56.5682C27.5085 56.2684 28.2805 56.947 28.7998 57.4839L28.3343 57.9277L34.1779 72.5597C34.2223 72.7061 34.2106 72.8688 34.1474 73.0198L27.5904 90.0199C27.4687 90.2895 27.2137 90.4638 26.9447 90.4638V90.4615ZM27.3705 57.6953C27.3822 57.7395 27.3962 57.7837 27.4126 57.8232L27.464 57.7581C27.4289 57.7325 27.3985 57.7116 27.3705 57.6953Z" fill="#E84938"/>
<path d="M31.8432 88.4187C31.8432 88.4187 31.8198 88.4187 31.8104 88.4187C31.5578 88.4048 31.3449 88.2421 31.2677 88.0004L31.256 87.9562L28.25 75.0185C28.2149 74.8837 28.2243 74.735 28.2804 74.5932L34.889 55.8803C35.0153 55.5922 35.2937 55.4109 35.5767 55.4272C35.8317 55.4434 36.0446 55.6108 36.1194 55.8571L36.1311 55.9059L39.095 70.503C39.1278 70.6401 39.1138 70.7888 39.0553 70.9283L32.4912 87.9771C32.3695 88.2467 32.1122 88.421 31.8455 88.421L31.8432 88.4187ZM29.3495 74.8767L31.9859 86.2225L37.9932 70.6168L35.3872 57.7791L29.3495 74.8767Z" fill="#E84938"/>
<path d="M37.2915 86.8988L36.8892 86.8849C36.454 86.8523 36.3441 86.4619 36.2154 86.0064L36.185 85.8995L33.1205 72.9408C33.0831 72.8037 33.0948 72.655 33.1509 72.5132L39.7642 53.7469C39.8882 53.4587 40.1642 53.2751 40.4496 53.2914C40.7046 53.3053 40.9174 53.4727 40.9946 53.7167L41.0063 53.7655L44.0311 68.3881C44.0638 68.5229 44.0498 68.6716 43.9936 68.8088L37.4483 86.5432L37.2892 86.8941L37.2915 86.8988ZM34.22 72.7968L37.0061 84.5725L42.9316 68.5136L40.2671 55.6363L34.22 72.7968Z" fill="#E84938"/>
<path d="M41.7408 84.2936C41.7408 84.2936 41.7198 84.2936 41.7104 84.2936C41.4601 84.282 41.2449 84.1193 41.1654 83.8799L41.1513 83.8334L38.026 70.8516C37.9886 70.7144 37.9979 70.5634 38.0541 70.4216L44.672 51.6019C44.796 51.3137 45.072 51.137 45.3574 51.1463C45.6124 51.1603 45.8253 51.3253 45.9025 51.5693L45.9165 51.6181L49.0044 66.2663C49.0371 66.4034 49.0254 66.5545 48.9669 66.6939L42.3911 83.8427C42.2695 84.1123 42.0122 84.2889 41.7432 84.2889L41.7408 84.2936ZM39.1255 70.7052L41.8742 82.1183L47.9026 66.3918L45.1796 53.4796L39.1255 70.7052Z" fill="#E84938"/>
<path d="M46.7423 82.2066C46.7423 82.2066 46.7236 82.2066 46.7142 82.2066C46.4639 82.195 46.2487 82.0347 46.1668 81.7976L46.1528 81.7511L42.9667 68.7483C42.9292 68.6112 42.9386 68.4602 42.9947 68.3184L49.615 49.4452C49.739 49.157 50.015 48.9711 50.3004 48.9897C50.5554 49.0013 50.7683 49.1663 50.8455 49.4103L50.8595 49.4615L54.0105 64.1352C54.0456 64.2723 54.0316 64.4234 53.9731 64.5651L47.3903 81.7651C47.2687 82.0347 47.0113 82.2113 46.74 82.2113L46.7423 82.2066ZM44.0638 68.595L46.8686 80.0407L52.9087 64.2561L50.1273 51.3044L44.0638 68.595Z" fill="#E84938"/>
<path d="M51.7788 80.108C51.7788 80.108 51.7624 80.108 51.7531 80.108C51.5028 80.0964 51.2875 79.9384 51.2057 79.7013L51.1916 79.6549L47.9423 66.6311C47.9026 66.4917 47.9119 66.3406 47.9681 66.1966L54.593 47.2699C54.717 46.9817 54.9977 46.8004 55.2784 46.8121C55.5334 46.8237 55.7486 46.9887 55.8258 47.2304L55.8398 47.2815L59.0564 61.9785C59.0915 62.1179 59.0798 62.269 59.019 62.4108L52.4315 79.6618C52.3098 79.9314 52.0502 80.1104 51.7811 80.1104L51.7788 80.108ZM49.0395 66.4731L51.9028 77.9537L57.9546 62.1063L55.1123 49.1175L49.0395 66.4731Z" fill="#E84938"/>
<path d="M56.8505 77.9908C56.8505 77.9908 56.8341 77.9908 56.8247 77.9908C56.5744 77.9815 56.3592 77.8212 56.275 77.5841L56.261 77.5377L52.9485 64.493C52.9087 64.3536 52.9181 64.2025 52.9742 64.0561L59.6038 45.0737C59.7278 44.7878 59.9968 44.6019 60.2869 44.6158C60.5419 44.6275 60.7571 44.7901 60.8366 45.0318L60.8507 45.083L64.1304 59.8055C64.1655 59.945 64.1538 60.096 64.0953 60.2401L57.5008 77.5423C57.3791 77.8142 57.1195 77.9908 56.8481 77.9908H56.8505ZM54.0456 64.3327L56.9698 75.8458L63.0309 59.938L60.1278 46.912L54.0456 64.3327Z" fill="#E84938"/>
<path d="M61.9572 75.8621C61.9572 75.8621 61.9431 75.8621 61.9338 75.8621C61.6835 75.8528 61.4682 75.6947 61.384 75.46L61.37 75.4112L57.9944 62.3457C57.9523 62.2062 57.9616 62.0528 58.0178 61.9064L64.6497 42.8705C64.7737 42.5847 65.0474 42.4011 65.3328 42.4104C65.5854 42.4197 65.803 42.5823 65.8825 42.824L65.8966 42.8775L69.2441 57.6256C69.2815 57.7651 69.2698 57.9184 69.209 58.0625L62.6098 75.4159C62.4882 75.6878 62.2285 75.8644 61.9572 75.8644V75.8621ZM59.0892 62.1807L62.0718 73.7286L68.1446 57.7604L65.1807 44.6949L59.0892 62.1807Z" fill="#E84938"/>
<path d="M67.1013 73.7171C67.1013 73.7171 67.0872 73.7171 67.0802 73.7171C66.8299 73.7078 66.6147 73.5521 66.5281 73.3173L66.5141 73.2685L63.073 60.1798C63.0309 60.0403 63.0402 59.8846 63.0964 59.7382L69.733 40.6465C69.8546 40.3607 70.1307 40.1771 70.4161 40.1864C70.6687 40.1957 70.8863 40.356 70.9682 40.5954L70.9822 40.6488L74.3952 55.4202C74.4327 55.562 74.421 55.7154 74.3625 55.8594L67.7563 73.2639C67.6346 73.5358 67.375 73.7148 67.1013 73.7148V73.7171ZM64.1678 60.0124L67.2112 71.5929L73.2934 55.5643L70.2664 42.4616L64.1678 60.0124Z" fill="#E84938"/>
<path d="M72.3811 71.7974C72.3811 71.7974 72.3694 71.7974 72.3624 71.7974C71.9413 71.7834 71.7939 71.386 71.7167 71.1722L71.6957 71.1094L68.1891 57.9998C68.147 57.858 68.154 57.7046 68.2124 57.5582L74.8514 38.4107C74.9731 38.1249 75.2444 37.9366 75.5322 37.9483C75.7848 37.9576 76.0024 38.1179 76.0842 38.355L76.1006 38.4084L79.5815 53.2053C79.6213 53.3471 79.6096 53.5005 79.5487 53.6446L72.9121 71.4441C72.8162 71.6602 72.608 71.7974 72.3788 71.7974H72.3811ZM69.2839 57.8278L72.4302 69.5896L78.4844 53.3517L75.3918 40.2095L69.2839 57.8278Z" fill="#E84938"/>
<path d="M77.5019 69.3805C77.5019 69.3805 77.4902 69.3805 77.4855 69.3805C77.2375 69.3735 77.0176 69.2201 76.9311 68.9877L76.9147 68.9389L73.3426 55.8083C73.2981 55.6665 73.3075 55.5108 73.3636 55.3644L80.0073 36.1612C80.1289 35.8753 80.4049 35.6894 80.688 35.6987C80.9406 35.7057 81.1582 35.866 81.2424 36.1031L81.2588 36.1565L84.8099 50.979C84.8496 51.1208 84.8379 51.2765 84.7771 51.4229L78.1592 68.9319C78.0376 69.2038 77.7756 69.3851 77.5019 69.3851V69.3805ZM74.4374 55.6293L77.6071 67.2772L83.7104 51.1231L80.5547 37.946L74.4374 55.6293Z" fill="#E84938"/>
<path d="M82.7559 67.189C82.7559 67.189 82.7466 67.189 82.7396 67.189C82.4916 67.182 82.2717 67.0286 82.1828 66.7962L82.1664 66.7474L78.5265 53.5959C78.482 53.4541 78.489 53.2961 78.5452 53.1474L85.1912 33.8883C85.3128 33.6025 85.5865 33.4189 85.8719 33.4235C86.1246 33.4305 86.3421 33.5886 86.4287 33.8256L86.445 33.8791L90.0639 48.7248C90.1037 48.8665 90.0944 49.0246 90.0335 49.171L83.411 66.7335C83.2893 67.0054 83.0273 67.1867 82.7536 67.1867L82.7559 67.189ZM79.6236 53.4146L82.8565 65.0951L88.9715 48.8805L85.7503 35.6639L79.626 53.4146H79.6236Z" fill="#E84938"/>
<path d="M88.0498 64.9811C88.0498 64.9811 88.0405 64.9811 88.0358 64.9811C87.7878 64.9765 87.5679 64.8231 87.479 64.593L87.4626 64.5442L83.7548 51.3694C83.7104 51.2277 83.7151 51.0696 83.7736 50.9186L90.4219 31.6038C90.5435 31.318 90.8102 31.1344 91.1003 31.139C91.3529 31.146 91.5705 31.3017 91.657 31.5387L91.6734 31.5945L95.3625 46.4658C95.4046 46.6099 95.3929 46.7656 95.3321 46.912L88.7048 64.5279C88.5832 64.8022 88.3212 64.9834 88.0451 64.9834L88.0498 64.9811ZM84.8473 51.1835L88.1434 62.8988L94.2677 46.6215L90.9786 33.3677L84.8473 51.1858V51.1835Z" fill="#E84938"/>
<path d="M94.3543 62.9089C94.111 62.9089 93.8958 62.7742 93.7929 62.5557L88.8522 50.8032C88.7867 50.6661 88.7821 50.4895 88.8429 50.3175L93.5309 34.3051L93.5589 34.254C93.959 33.5126 94.1297 33.1106 94.2022 32.8991C94.0993 32.834 94.0245 32.7457 93.9753 32.6342C93.8186 32.2832 93.9707 31.9463 94.4713 31.1677L95.4 31.758C95.29 31.9277 95.2128 32.0555 95.1567 32.1531C95.2035 32.2019 95.2456 32.26 95.2807 32.332C95.4584 32.6923 95.3953 33.164 94.5578 34.7234L89.933 50.5267L94.8034 62.1141C94.7146 61.9236 94.5391 61.8167 94.3473 61.8143C94.228 61.8143 94.0759 61.8701 94.0151 62.0142L95.0304 62.4418C94.9134 62.7161 94.6467 62.9043 94.366 62.9089C94.3613 62.9089 94.359 62.9089 94.3543 62.9089ZM89.8628 50.3593L89.8769 50.3942C89.8722 50.3826 89.8675 50.371 89.8628 50.3593Z" fill="#E84938"/>
<path d="M28.848 91.4302C28.8486 91.1106 27.9107 90.8497 26.7531 90.8475C25.5955 90.8452 24.6566 91.1025 24.656 91.4221C24.6554 91.7417 25.5933 92.0026 26.7509 92.0048C27.9085 92.0071 28.8474 91.7498 28.848 91.4302Z" fill="#A43428"/>
<mask id="mask0_906_5543" style="mask-type:luminance" maskUnits="userSpaceOnUse" x="28" y="56" width="1" height="36">
<path d="M28.8489 91.426C28.8489 91.34 28.781 91.254 28.6337 91.1703L28.6992 56.559C28.8442 56.6403 28.9144 56.7286 28.9144 56.8146C28.8957 67.1982 28.8699 81.0423 28.8489 91.426Z" fill="white"/>
</mask>
<g mask="url(#mask0_906_5543)">
<path d="M28.8489 91.426L28.9144 56.8146C28.9144 56.7286 28.8465 56.6426 28.6992 56.559L28.6337 91.1703C28.7787 91.2517 28.8489 91.34 28.8489 91.426Z" fill="#79261D"/>
</g>
<mask id="mask1_906_5543" style="mask-type:luminance" maskUnits="userSpaceOnUse" x="24" y="56" width="5" height="36">
<path d="M24.72 56.8077C24.72 56.5938 25.1528 56.3893 25.8944 56.2894C26.9354 56.15 28.1916 56.2708 28.7015 56.559L28.636 91.1703C28.1261 90.8822 26.8699 90.7613 25.8289 90.9008C25.0873 91.0007 24.6545 91.2052 24.6545 91.419C24.6733 81.0354 24.699 67.1913 24.72 56.8077Z" fill="white"/>
</mask>
<g mask="url(#mask1_906_5543)">
<path d="M28.6338 91.1703L28.6993 56.559C28.6104 56.5102 28.5004 56.4637 28.3741 56.4265L28.3086 91.0379C28.4349 91.0774 28.5449 91.1215 28.6338 91.1703Z" fill="#79261D"/>
<path d="M28.3109 91.0355L28.3764 56.4242C28.3273 56.4079 28.2758 56.3939 28.2197 56.38L28.1542 90.9914C28.208 91.0053 28.2618 91.0193 28.3109 91.0355Z" fill="#7D271E"/>
<path d="M28.1541 90.9936L28.2196 56.3823C28.1751 56.3706 28.1307 56.3613 28.0863 56.3521L28.0208 90.9634C28.0675 90.9727 28.112 90.9843 28.1541 90.9936Z" fill="#82291F"/>
<path d="M28.0185 90.9635L28.084 56.3521C28.0442 56.3428 28.0021 56.3358 27.96 56.3289L27.8945 90.9402C27.9366 90.9472 27.9787 90.9565 28.0185 90.9635Z" fill="#872A20"/>
<path d="M27.8945 90.9379L27.96 56.3266C27.9202 56.3196 27.8804 56.3126 27.8406 56.3057L27.7751 90.917C27.8149 90.924 27.8547 90.931 27.8945 90.9379Z" fill="#8B2C22"/>
<path d="M27.7775 90.9193L27.843 56.3079C27.8056 56.3009 27.7658 56.2963 27.726 56.2916L27.6605 90.903C27.7003 90.9076 27.7401 90.9146 27.7775 90.9193Z" fill="#902D23"/>
<path d="M27.6605 90.9007L27.726 56.2893C27.6886 56.2847 27.6488 56.28 27.6091 56.2754L27.5436 90.8868C27.5833 90.8914 27.6208 90.896 27.6605 90.9007Z" fill="#942F24"/>
<path d="M27.5436 90.8868L27.6091 56.2754C27.5717 56.2708 27.5319 56.2661 27.4921 56.2638L27.4266 90.8752C27.4664 90.8798 27.5038 90.8821 27.5436 90.8868Z" fill="#993025"/>
<path d="M27.4267 90.8752L27.4922 56.2638C27.4547 56.2592 27.415 56.2568 27.3752 56.2545L27.3097 90.8659C27.3495 90.8682 27.3869 90.8729 27.4267 90.8752Z" fill="#9E3226"/>
<path d="M27.312 90.8659L27.3775 56.2545C27.3378 56.2522 27.3003 56.2499 27.2606 56.2452L27.1951 90.8566C27.2348 90.8589 27.2746 90.8613 27.312 90.8659Z" fill="#A23327"/>
<path d="M27.1951 90.8566L27.2606 56.2453C27.2208 56.2429 27.1811 56.2406 27.1436 56.2383L27.0781 90.8496C27.1179 90.8496 27.1577 90.8543 27.1951 90.8566Z" fill="#A73528"/>
<path d="M27.0757 90.8495L27.1412 56.2382C27.1015 56.2382 27.0617 56.2358 27.0219 56.2335L26.9564 90.8449C26.9962 90.8449 27.036 90.8472 27.0757 90.8495Z" fill="#AC3629"/>
<path d="M26.9588 90.8449L27.0243 56.2335C26.9845 56.2335 26.9447 56.2335 26.905 56.2312L26.8395 90.8426C26.8792 90.8426 26.919 90.8426 26.9588 90.8449Z" fill="#B0372B"/>
<path d="M26.8394 90.8426L26.9049 56.2312C26.8651 56.2312 26.8254 56.2312 26.7856 56.2312L26.7201 90.8426C26.7599 90.8426 26.7996 90.8426 26.8394 90.8426Z" fill="#B5392C"/>
<path d="M26.7202 90.8426L26.7857 56.2312C26.7436 56.2312 26.7038 56.2312 26.6617 56.2312L26.5962 90.8426C26.6383 90.8426 26.6781 90.8426 26.7202 90.8426Z" fill="#BA3A2D"/>
<path d="M26.5961 90.8449L26.6616 56.2335C26.6172 56.2335 26.5727 56.2335 26.5283 56.2382L26.4628 90.8495C26.5072 90.8495 26.5517 90.8472 26.5961 90.8449Z" fill="#BE3C2E"/>
<path d="M26.4628 90.8473L26.5283 56.236C26.4745 56.236 26.4184 56.2406 26.3646 56.2429L26.2991 90.8543C26.3529 90.852 26.409 90.8473 26.4628 90.8473Z" fill="#C33D2F"/>
<path d="M26.2991 90.8566L26.3646 56.2452C26.2055 56.2545 26.0488 56.2685 25.8944 56.2894C25.7798 56.3057 25.6745 56.3219 25.5762 56.3428L25.5107 90.9542C25.609 90.9333 25.7166 90.917 25.8289 90.9008C25.9809 90.8798 26.14 90.8659 26.2991 90.8566Z" fill="#C83F30"/>
<path d="M25.5107 90.9541L25.5762 56.3428C25.5037 56.3567 25.4358 56.373 25.3703 56.3893L25.3048 91.0006C25.368 90.9843 25.4382 90.9681 25.5107 90.9541Z" fill="#C33D2F"/>
<path d="M25.3049 91.0006L25.3704 56.3893C25.3213 56.4032 25.2745 56.4148 25.2301 56.4288L25.1646 91.0402C25.209 91.0262 25.2558 91.0123 25.3049 91.0006Z" fill="#BE3C2E"/>
<path d="M25.1645 91.0402L25.23 56.4288C25.1925 56.4405 25.1598 56.4521 25.127 56.4637L25.0615 91.0751C25.0943 91.0634 25.1294 91.0518 25.1645 91.0402Z" fill="#BA3A2D"/>
<path d="M25.0616 91.0773L25.1271 56.4659C25.0967 56.4776 25.071 56.4892 25.0429 56.5008L24.9774 91.1122C25.0031 91.1005 25.0312 91.0889 25.0616 91.0773Z" fill="#B5392C"/>
<path d="M24.9774 91.1099L25.0429 56.4985C25.0195 56.5102 24.9961 56.5195 24.975 56.5311L24.9095 91.1424C24.9306 91.1308 24.954 91.1215 24.9774 91.1099Z" fill="#B0372B"/>
<path d="M24.9096 91.1424L24.9751 56.531C24.954 56.5426 24.9353 56.5519 24.9166 56.5635L24.8511 91.1749C24.8698 91.1633 24.8885 91.154 24.9096 91.1424Z" fill="#AC3629"/>
<path d="M24.851 91.175L24.9165 56.5636C24.8978 56.5752 24.8814 56.5845 24.8674 56.5961L24.8019 91.2075C24.8183 91.1959 24.8346 91.1866 24.851 91.175Z" fill="#A73528"/>
<path d="M24.7996 91.2051L24.8651 56.5938C24.851 56.6054 24.837 56.6147 24.8229 56.6263L24.7574 91.2377C24.7691 91.226 24.7832 91.2167 24.7996 91.2051Z" fill="#A23327"/>
<path d="M24.7598 91.2377L24.8253 56.6263C24.8136 56.638 24.8019 56.6473 24.7902 56.6589L24.7247 91.2702C24.7247 91.2702 24.7458 91.2493 24.7598 91.2377Z" fill="#9E3226"/>
<path d="M24.7247 91.2702L24.7902 56.6588C24.7902 56.6588 24.7692 56.6821 24.7622 56.6913L24.6967 91.3027C24.6967 91.3027 24.713 91.2795 24.7247 91.2702Z" fill="#993025"/>
<path d="M24.6966 91.3051L24.7621 56.6937C24.7621 56.6937 24.7457 56.717 24.741 56.7286L24.6755 91.3376C24.6755 91.3376 24.6896 91.3144 24.6966 91.3028" fill="#942F24"/>
<path d="M24.6754 91.3377L24.7409 56.7263C24.7339 56.7379 24.7292 56.7496 24.7269 56.7612L24.6614 91.3749C24.6637 91.3632 24.6684 91.3516 24.6754 91.34" fill="#902D23"/>
<path d="M24.6616 91.3748L24.7271 56.7634C24.7224 56.775 24.7224 56.789 24.72 56.8006L24.6545 91.412C24.6545 91.4004 24.6569 91.3864 24.6616 91.3748Z" fill="#8B2C22"/>
<path d="M24.6545 91.412L24.72 56.8007V56.8053L24.6545 91.419V91.4143" fill="#872A20"/>
</g>
<mask id="mask2_906_5543" style="mask-type:luminance" maskUnits="userSpaceOnUse" x="24" y="56" width="5" height="37">
<path d="M24.6545 91.419L24.72 56.8076C24.72 56.8936 24.7879 56.9796 24.9353 57.0633C25.4452 57.3514 26.7014 57.4723 27.7424 57.3328C28.484 57.2329 28.9168 57.0284 28.9168 56.8146L28.8513 91.426C28.8513 91.6398 28.4185 91.8443 27.6769 91.9442C26.6359 92.0837 25.3797 91.9628 24.8698 91.6746C24.7224 91.591 24.6545 91.5026 24.6545 91.419Z" fill="white"/>
</mask>
<g mask="url(#mask2_906_5543)">
<path d="M24.6545 91.419L24.72 56.8076C24.72 56.8936 24.7879 56.9796 24.9353 57.0633C25.0242 57.1121 25.1341 57.1585 25.2604 57.1957L25.1949 91.8071C25.0686 91.7676 24.9587 91.7234 24.8698 91.6746C24.7224 91.591 24.6545 91.5026 24.6545 91.419Z" fill="#79261D"/>
<path d="M25.1949 91.807L25.2604 57.1957C25.3096 57.2119 25.361 57.2259 25.4172 57.2398L25.3517 91.8512C25.2979 91.8373 25.2441 91.8233 25.1949 91.807Z" fill="#7D271E"/>
<path d="M25.3494 91.8489L25.4149 57.2375C25.4593 57.2492 25.5038 57.2585 25.5482 57.2678L25.4827 91.8791C25.4359 91.8698 25.3915 91.8582 25.3494 91.8489Z" fill="#82291F"/>
<path d="M25.485 91.8815L25.5505 57.2701C25.5903 57.2794 25.6324 57.2864 25.6745 57.2934L25.609 91.9047C25.5669 91.8978 25.5248 91.8885 25.485 91.8815Z" fill="#872A20"/>
<path d="M25.609 91.9047L25.6745 57.2933C25.7143 57.3003 25.754 57.3073 25.7938 57.3143L25.7283 91.9256C25.6885 91.9186 25.6488 91.9117 25.609 91.9047Z" fill="#8B2C22"/>
<path d="M25.7283 91.9256L25.7938 57.3142C25.8312 57.3212 25.871 57.3258 25.9107 57.3305L25.8452 91.9418C25.8055 91.9372 25.7657 91.9302 25.7283 91.9256Z" fill="#902D23"/>
<path d="M25.8452 91.9419L25.9107 57.3306C25.9481 57.3352 25.9879 57.3399 26.0277 57.3445L25.9622 91.9559C25.9224 91.9512 25.885 91.9466 25.8452 91.9419Z" fill="#942F24"/>
<path d="M25.9598 91.9559L26.0253 57.3445C26.0628 57.3491 26.1025 57.3538 26.1423 57.3561L26.0768 91.9675C26.037 91.9628 25.9996 91.9605 25.9598 91.9559Z" fill="#993025"/>
<path d="M26.0768 91.9674L26.1423 57.3561C26.1797 57.3607 26.2195 57.3631 26.2592 57.3654L26.1937 91.9767C26.154 91.9744 26.1166 91.9698 26.0768 91.9674Z" fill="#9E3226"/>
<path d="M26.1914 91.979L26.2569 57.3677C26.2967 57.37 26.3341 57.3723 26.3739 57.377L26.3084 91.9883C26.2686 91.986 26.2288 91.9837 26.1914 91.979Z" fill="#A23327"/>
<path d="M26.3085 91.986L26.374 57.3746C26.4137 57.377 26.4535 57.3793 26.4909 57.3816L26.4254 91.993C26.3857 91.993 26.3459 91.9883 26.3085 91.986Z" fill="#A73528"/>
<path d="M26.4277 91.993L26.4932 57.3816C26.533 57.3816 26.5728 57.3839 26.6125 57.3862L26.547 91.9976C26.5073 91.9976 26.4675 91.9953 26.4277 91.993Z" fill="#AC3629"/>
<path d="M26.5447 91.9977L26.6102 57.3864C26.6499 57.3864 26.6897 57.3864 26.7295 57.3887L26.664 92C26.6242 92 26.5844 92 26.5447 91.9977Z" fill="#B0372B"/>
<path d="M26.6641 92L26.7296 57.3887C26.7693 57.3887 26.8091 57.3887 26.8489 57.3887L26.7834 92C26.7436 92 26.7038 92 26.6641 92Z" fill="#B5392C"/>
<path d="M26.7833 92L26.8488 57.3887C26.8909 57.3887 26.9307 57.3887 26.9728 57.3887L26.9073 92C26.8652 92 26.8254 92 26.7833 92Z" fill="#BA3A2D"/>
<path d="M26.9073 92L26.9728 57.3887C27.0173 57.3887 27.0617 57.3887 27.1062 57.384L27.0407 91.9954C26.9962 91.9954 26.9518 91.9977 26.9073 92Z" fill="#BE3C2E"/>
<path d="M27.0406 91.9953L27.1062 57.3839C27.16 57.3839 27.2161 57.3793 27.2699 57.377L27.2044 91.9883C27.1506 91.9906 27.0945 91.9953 27.0406 91.9953Z" fill="#C33D2F"/>
<path d="M27.2043 91.9884L27.2698 57.377C27.4289 57.3677 27.5857 57.3538 27.74 57.3329C27.8547 57.3166 27.9599 57.3003 28.0582 57.2794L27.9927 91.8908C27.8944 91.9117 27.7868 91.928 27.6745 91.9442C27.5225 91.9652 27.3634 91.9791 27.2043 91.9884Z" fill="#C83F30"/>
<path d="M27.9951 91.8908L28.0606 57.2794C28.1331 57.2654 28.201 57.2492 28.2665 57.2329L28.201 91.8443C28.1378 91.8605 28.0676 91.8768 27.9951 91.8908Z" fill="#C33D2F"/>
<path d="M28.2009 91.8419L28.2664 57.2305C28.3156 57.2166 28.3623 57.205 28.4068 57.191L28.3413 91.8024C28.2968 91.8163 28.2501 91.8303 28.2009 91.8419Z" fill="#BE3C2E"/>
<path d="M28.339 91.8025L28.4045 57.1911C28.4419 57.1795 28.4747 57.1679 28.5074 57.1562L28.4419 91.7676C28.4092 91.7792 28.3741 91.7909 28.339 91.8025Z" fill="#BA3A2D"/>
<path d="M28.4419 91.7676L28.5074 57.1562C28.5378 57.1446 28.5635 57.133 28.5916 57.1213L28.5261 91.7327C28.5004 91.7443 28.4723 91.7559 28.4419 91.7676Z" fill="#B5392C"/>
<path d="M28.5261 91.7328L28.5916 57.1214C28.615 57.1098 28.6384 57.1005 28.6595 57.0889L28.594 91.7002C28.5729 91.7119 28.5495 91.7212 28.5261 91.7328Z" fill="#B0372B"/>
<path d="M28.5963 91.7002L28.6618 57.0888C28.6829 57.0772 28.7016 57.0679 28.7203 57.0563L28.6548 91.6676C28.6361 91.6793 28.6174 91.6886 28.5963 91.7002Z" fill="#AC3629"/>
<path d="M28.6548 91.6677L28.7203 57.0563C28.739 57.0447 28.7554 57.0354 28.7694 57.0238L28.7039 91.6352C28.6875 91.6468 28.6712 91.6561 28.6548 91.6677Z" fill="#A73528"/>
<path d="M28.7039 91.6374L28.7694 57.0261C28.7834 57.0144 28.7974 57.0052 28.8115 56.9935L28.746 91.6049C28.7343 91.6165 28.7202 91.6258 28.7039 91.6374Z" fill="#A23327"/>
<path d="M28.746 91.605L28.8115 56.9936C28.8232 56.982 28.8349 56.9727 28.8466 56.9611L28.7811 91.5724C28.7811 91.5724 28.76 91.5933 28.746 91.605Z" fill="#9E3226"/>
<path d="M28.7787 91.5724L28.8442 56.961C28.8442 56.961 28.8652 56.9378 28.8723 56.9285L28.8068 91.5398C28.8068 91.5398 28.7904 91.5631 28.7787 91.5724Z" fill="#993025"/>
<path d="M28.8068 91.5398L28.8723 56.9284C28.8723 56.9284 28.8886 56.9052 28.8933 56.8936L28.8278 91.5049C28.8278 91.5049 28.8138 91.5282 28.8068 91.5398Z" fill="#942F24"/>
<path d="M28.8302 91.505L28.8957 56.8936C28.9027 56.882 28.9074 56.8704 28.9097 56.8588L28.8442 91.4701C28.8419 91.4818 28.8372 91.4934 28.8302 91.505Z" fill="#902D23"/>
<path d="M28.8442 91.4678L28.9097 56.8564C28.9144 56.8448 28.9144 56.8308 28.9168 56.8192L28.8513 91.4306C28.8513 91.4422 28.8489 91.4561 28.8442 91.4678Z" fill="#8B2C22"/>
<path d="M28.8489 91.4306L28.9144 56.8192V56.8146L28.8489 91.4259V91.4306Z" fill="#872A20"/>
</g>
<path d="M28.9137 56.8197C28.9144 56.5001 27.9764 56.2392 26.8188 56.237C25.6612 56.2348 24.7223 56.4921 24.7217 56.8117C24.7211 57.1313 25.659 57.3922 26.8166 57.3944C27.9742 57.3966 28.9131 57.1393 28.9137 56.8197Z" fill="#A43428"/>
<path d="M95.9485 63.1507C95.9488 62.9953 95.4934 62.8686 94.9314 62.8675C94.3694 62.8664 93.9136 62.9915 93.9133 63.1468C93.913 63.3021 94.3683 63.4288 94.9303 63.4299C95.4923 63.431 95.9482 63.306 95.9485 63.1507Z" fill="#A43428"/>
<mask id="mask3_906_5543" style="mask-type:luminance" maskUnits="userSpaceOnUse" x="95" y="28" width="2" height="36">
<path d="M95.9404 63.1483C95.9404 63.1065 95.9076 63.0646 95.8375 63.0251L95.9147 28.1628C95.9872 28.2023 96.0199 28.2464 96.0199 28.2883C95.9942 39.9083 95.9685 51.5283 95.9427 63.1506L95.9404 63.1483Z" fill="white"/>
</mask>
<g mask="url(#mask3_906_5543)">
<path d="M95.9405 63.1483L96.0177 28.286C96.0177 28.2441 95.9849 28.2023 95.9124 28.1605L95.8352 63.0228C95.9054 63.0623 95.9405 63.1042 95.9381 63.146" fill="#79261D"/>
</g>
<mask id="mask4_906_5543" style="mask-type:luminance" maskUnits="userSpaceOnUse" x="93" y="28" width="3" height="36">
<path d="M93.959 28.2837C93.959 28.1791 94.1718 28.0791 94.5344 28.0303C95.0444 27.9629 95.662 28.021 95.9123 28.1628L95.8351 63.0252C95.5871 62.8857 94.9789 62.8276 94.4736 62.895C94.1133 62.9438 93.9052 63.0414 93.9052 63.146C93.9215 51.526 93.9402 39.906 93.9566 28.2837H93.959Z" fill="white"/>
</mask>
<g mask="url(#mask4_906_5543)">
<path d="M95.8351 63.0228L95.9123 28.1605C95.8702 28.1372 95.8164 28.114 95.7533 28.0954L95.6784 62.9601C95.7392 62.9787 95.793 62.9996 95.8351 63.0252" fill="#79261D"/>
<path d="M95.6784 62.9601L95.7532 28.0954C95.7298 28.0884 95.7041 28.0814 95.676 28.0745L95.6035 62.9391C95.6292 62.9461 95.655 62.9531 95.6784 62.9601Z" fill="#7D271E"/>
<path d="M95.6035 62.9392L95.676 28.0745C95.655 28.0698 95.6339 28.0652 95.6105 28.0582L95.538 62.9229C95.5614 62.9276 95.5825 62.9322 95.6035 62.9369" fill="#82291F"/>
<path d="M95.5381 62.9229L95.6106 28.0583C95.5919 28.0536 95.5708 28.049 95.5498 28.0466L95.4772 62.9113C95.4983 62.916 95.517 62.9183 95.5381 62.9229Z" fill="#872A20"/>
<path d="M95.4772 62.9113L95.5498 28.0466C95.531 28.0443 95.51 28.0396 95.4913 28.0373L95.4188 62.902C95.4375 62.9043 95.4585 62.9089 95.4772 62.9113Z" fill="#8B2C22"/>
<path d="M95.4188 62.902L95.4913 28.0373C95.4726 28.035 95.4538 28.0327 95.4328 28.028L95.3626 62.8927C95.3813 62.895 95.4 62.8973 95.4188 62.902Z" fill="#902D23"/>
<path d="M95.3626 62.8927L95.4328 28.028C95.4141 28.0257 95.3953 28.0234 95.3766 28.0211L95.3065 62.8857C95.3252 62.8857 95.3439 62.8904 95.3626 62.8927Z" fill="#942F24"/>
<path d="M95.3064 62.8857L95.3766 28.021C95.3579 28.021 95.3392 28.0164 95.3205 28.014L95.2503 62.8787C95.269 62.8787 95.2877 62.8834 95.3064 62.8857Z" fill="#993025"/>
<path d="M95.2503 62.881L95.3205 28.0164C95.3017 28.0164 95.283 28.014 95.2643 28.0117L95.1965 62.8764C95.2152 62.8764 95.2339 62.8787 95.2526 62.881" fill="#9E3226"/>
<path d="M95.1942 62.8764L95.262 28.0117C95.2433 28.0117 95.2246 28.0094 95.2035 28.0071L95.1357 62.8718C95.1544 62.8718 95.1731 62.8741 95.1918 62.8764" fill="#A23327"/>
<path d="M95.138 62.8718L95.2059 28.0071C95.1871 28.0071 95.1684 28.0071 95.1474 28.0048L95.0795 62.8694C95.0982 62.8694 95.117 62.8694 95.1357 62.8718" fill="#A73528"/>
<path d="M95.0795 62.8694L95.1474 28.0048C95.1287 28.0048 95.1076 28.0048 95.0889 28.0048L95.0234 62.8694C95.0421 62.8694 95.0608 62.8694 95.0819 62.8694" fill="#AC3629"/>
<path d="M95.0234 62.8671L95.0889 28.0001C95.0702 28.0001 95.0491 28.0001 95.0304 28.0001L94.9649 62.8648C94.9836 62.8648 95.0023 62.8648 95.0234 62.8648" fill="#B0372B"/>
<path d="M94.9649 62.8648L95.0327 28.0001C95.014 28.0001 94.993 28.0001 94.9742 28.0001L94.9088 62.8648C94.9275 62.8648 94.9485 62.8648 94.9672 62.8648" fill="#B5392C"/>
<path d="M94.9088 62.8648L94.972 28.0001C94.9509 28.0001 94.9322 28.0001 94.9111 28.0001L94.848 62.8648C94.869 62.8648 94.8877 62.8648 94.9088 62.8648Z" fill="#BA3A2D"/>
<path d="M94.848 62.8648L94.9111 28.0001C94.8901 28.0001 94.8667 28.0001 94.8456 28.0001L94.7825 62.8648C94.8035 62.8648 94.8246 62.8648 94.8456 62.8648" fill="#BE3C2E"/>
<path d="M94.7848 62.8671L94.848 28.0024C94.8222 28.0024 94.7942 28.0024 94.7684 28.0071L94.7053 62.8718C94.731 62.8718 94.7591 62.8694 94.7848 62.8671Z" fill="#C33D2F"/>
<path d="M94.7053 62.8718L94.7661 28.0071C94.6866 28.0117 94.6094 28.0187 94.5345 28.028C94.4784 28.035 94.4245 28.0443 94.3778 28.0536L94.3193 62.9182C94.3684 62.9089 94.4199 62.8996 94.476 62.8927C94.5509 62.8834 94.6281 62.8764 94.7053 62.8718Z" fill="#C83F30"/>
<path d="M94.3193 62.9183L94.3777 28.0536C94.3426 28.0606 94.3076 28.0675 94.2771 28.0768L94.221 62.9415C94.2514 62.9345 94.2842 62.9252 94.3216 62.9183" fill="#C33D2F"/>
<path d="M94.221 62.9415L94.2772 28.0768C94.2538 28.0838 94.2304 28.0908 94.2093 28.0954L94.1532 62.9601C94.1743 62.9531 94.1976 62.9462 94.221 62.9415Z" fill="#BE3C2E"/>
<path d="M94.1532 62.9601L94.2093 28.0954C94.1906 28.1 94.1742 28.107 94.1578 28.114L94.1017 62.9787C94.1181 62.9717 94.1344 62.967 94.1508 62.9624" fill="#BA3A2D"/>
<path d="M94.1017 62.9787L94.1579 28.114C94.1438 28.1187 94.1298 28.1256 94.1158 28.1303L94.062 62.9926C94.0736 62.988 94.0877 62.981 94.1017 62.9764" fill="#B5392C"/>
<path d="M94.0619 62.9949L94.1157 28.1326C94.104 28.1372 94.0923 28.1442 94.083 28.1488L94.0292 63.0112C94.0292 63.0112 94.0502 62.9996 94.0619 62.9949Z" fill="#B0372B"/>
<path d="M94.0292 63.0112L94.083 28.1489C94.083 28.1489 94.0643 28.1582 94.0549 28.1651L94.0011 63.0275C94.0011 63.0275 94.0198 63.0182 94.0292 63.0112Z" fill="#AC3629"/>
<path d="M94.0011 63.0251L94.0549 28.1628C94.0549 28.1628 94.0385 28.1721 94.0315 28.179L93.9777 63.0414C93.9777 63.0414 93.9941 63.0321 94.0011 63.0251Z" fill="#A73528"/>
<path d="M93.9754 63.0414L94.0292 28.1791C94.0292 28.1791 94.0152 28.1884 94.0082 28.1953L93.9543 63.0577C93.9543 63.0577 93.9684 63.0484 93.9754 63.0414Z" fill="#A23327"/>
<path d="M93.9567 63.0577L94.0105 28.1953C94.0105 28.1953 93.9988 28.2069 93.9941 28.2116L93.9403 63.0739C93.9403 63.0739 93.952 63.0623 93.9567 63.0577Z" fill="#9E3226"/>
<path d="M93.9403 63.0716L93.9941 28.2093C93.9941 28.2093 93.9847 28.2209 93.9801 28.2256L93.9263 63.0879C93.9263 63.0879 93.9356 63.0763 93.9403 63.0716Z" fill="#993025"/>
<path d="M93.9263 63.0879L93.9801 28.2255C93.9801 28.2255 93.9731 28.2371 93.9707 28.2418L93.9169 63.1041C93.9169 63.1041 93.9239 63.0925 93.9263 63.0879Z" fill="#942F24"/>
<path d="M93.9144 63.1065L93.9682 28.2441C93.9682 28.2441 93.9635 28.2558 93.9612 28.2627L93.9097 63.1251C93.9097 63.1251 93.9144 63.1135 93.9168 63.1065" fill="#902D23"/>
<path d="M93.9075 63.1228L93.959 28.2604C93.959 28.2604 93.9566 28.2721 93.9566 28.279L93.9052 63.1414C93.9052 63.1414 93.9051 63.1298 93.9075 63.1228Z" fill="#8B2C22"/>
<path d="M93.9052 63.1413L93.959 28.279V28.2836L93.9052 63.1437V63.1413Z" fill="#872A20"/>
</g>
<mask id="mask5_906_5543" style="mask-type:luminance" maskUnits="userSpaceOnUse" x="94" y="28" width="1" height="36">
<path d="M95.0001 28.2836C94.986 34.0936 94.9743 39.9036 94.9603 45.7137C94.9533 48.6187 94.9462 51.5237 94.9416 54.4287C94.9346 57.3337 94.9275 60.2387 94.9229 63.1437L95.0001 28.2813V28.2836Z" fill="white"/>
</mask>
<g mask="url(#mask5_906_5543)">
<path d="M95.0001 28.2839L94.9229 63.1462L95.0001 28.2839Z" fill="#79261D"/>
</g>
<mask id="mask6_906_5543" style="mask-type:luminance" maskUnits="userSpaceOnUse" x="94" y="28" width="1" height="36">
<path d="M94.9228 63.146C94.9392 51.526 94.9579 39.906 94.9743 28.2836C94.9743 28.2836 94.9766 28.2813 94.9813 28.2813C94.9883 28.2813 94.9953 28.2813 94.9977 28.2813L94.9205 63.1437L94.9228 63.146Z" fill="white"/>
</mask>
<g mask="url(#mask6_906_5543)">
<path d="M95 28.2836L94.9228 63.146L94.9977 28.2813L95 28.2836Z" fill="#79261D"/>
<path d="M94.9977 28.2813L94.9228 63.146L94.9953 28.2813H94.9977Z" fill="#7D271E"/>
<path d="M94.9953 28.2813L94.9228 63.146L94.9953 28.2813Z" fill="#82291F"/>
<path d="M94.9953 28.2813L94.9228 63.146L94.9953 28.2813Z" fill="#872A20"/>
<path d="M94.9953 28.2813L94.9228 63.146L94.9953 28.2813Z" fill="#8B2C22"/>
<path d="M94.9953 28.2813L94.9228 63.146L94.993 28.2813H94.9953Z" fill="#902D23"/>
<path d="M94.993 28.2813L94.9228 63.146L94.993 28.2813Z" fill="#942F24"/>
<path d="M94.993 28.2813L94.9228 63.146L94.993 28.2813Z" fill="#993025"/>
<path d="M94.993 28.2813L94.9228 63.146L94.9906 28.2813H94.993Z" fill="#9E3226"/>
<path d="M94.9906 28.2813L94.9228 63.146L94.9906 28.2813Z" fill="#A23327"/>
<path d="M94.9906 28.2813L94.9228 63.146L94.9906 28.2813Z" fill="#A73528"/>
<path d="M94.9906 28.2813L94.9228 63.146L94.9883 28.2813H94.9906Z" fill="#AC3629"/>
<path d="M94.9883 28.2813L94.9228 63.146L94.9883 28.2813Z" fill="#B0372B"/>
<path d="M94.9883 28.2813L94.9228 63.146L94.9883 28.2813Z" fill="#B5392C"/>
<path d="M94.9883 28.2813L94.9228 63.146L94.986 28.2813H94.9883Z" fill="#BA3A2D"/>
<path d="M94.986 28.2813L94.9228 63.146L94.986 28.2813Z" fill="#BE3C2E"/>
<path d="M94.986 28.2813L94.9228 63.146L94.986 28.2813Z" fill="#C33D2F"/>
<path d="M94.986 28.2813L94.9228 63.146L94.9813 28.2813C94.9813 28.2813 94.9813 28.2813 94.9836 28.2813" fill="#C83F30"/>
<path d="M94.9813 28.2813L94.9228 63.146L94.9789 28.2813H94.9813Z" fill="#C33D2F"/>
<path d="M94.9789 28.2813L94.9228 63.146L94.9789 28.2813Z" fill="#BE3C2E"/>
<path d="M94.9789 28.2813L94.9228 63.146L94.9789 28.2813Z" fill="#BA3A2D"/>
<path d="M94.9789 28.2813L94.9228 63.146L94.9766 28.2813H94.9789Z" fill="#B5392C"/>
<path d="M94.9766 28.2813L94.9228 63.146L94.9766 28.2836V28.2813Z" fill="#B0372B"/>
<path d="M94.9765 28.2839L94.9227 63.1462L94.9765 28.2839Z" fill="#AC3629"/>
<path d="M94.9765 28.2839L94.9227 63.1462L94.9765 28.2839Z" fill="#A73528"/>
<path d="M94.9765 28.2839L94.9227 63.1462L94.9765 28.2839Z" fill="#A23327"/>
<path d="M94.9765 28.2839L94.9227 63.1462L94.9765 28.2839Z" fill="#9E3226"/>
<path d="M94.9765 28.2839L94.9227 63.1462L94.9765 28.2839Z" fill="#993025"/>
<path d="M94.9765 28.2839L94.9227 63.1462L94.9765 28.2839Z" fill="#942F24"/>
<path d="M94.9765 28.2839L94.9227 63.1462L94.9742 28.2839H94.9765Z" fill="#902D23"/>
<path d="M94.9742 28.2839L94.9227 63.1462L94.9742 28.2839Z" fill="#8B2C22"/>
<path d="M94.9742 28.2839L94.9227 63.1462L94.9742 28.2839Z" fill="#872A20"/>
</g>
<mask id="mask7_906_5543" style="mask-type:luminance" maskUnits="userSpaceOnUse" x="94" y="28" width="7" height="36">
<path d="M94.9743 28.2836C94.9766 28.2836 94.986 28.286 94.9906 28.2836C94.9953 28.2836 94.9977 28.2836 94.9977 28.2813C94.9836 34.0913 94.9719 39.9013 94.9579 45.7113C94.9509 48.6163 94.9439 51.5213 94.9392 54.4263C94.9322 57.3313 94.9251 60.2364 94.9205 63.1414C106.636 51.5027 94.9556 39.9013 94.9719 28.279L94.9743 28.2836Z" fill="white"/>
</mask>
<g mask="url(#mask7_906_5543)">
<path d="M94.9742 28.2837L94.9228 63.146L94.9789 28.286H94.9766L94.9742 28.2837Z" fill="#79261D"/>
<path d="M94.9789 28.2858L94.9227 63.1459L94.9789 28.2858Z" fill="#7D271E"/>
<path d="M94.9789 28.2858L94.9227 63.1459L94.9812 28.2858H94.9789Z" fill="#82291F"/>
<path d="M94.9812 28.2858L94.9227 63.1459L94.9812 28.2882V28.2858Z" fill="#872A20"/>
<path d="M94.9813 28.2883L94.9228 63.146L94.9813 28.2883Z" fill="#8B2C22"/>
<path d="M94.9813 28.2883L94.9228 63.146L94.9836 28.2883H94.9813Z" fill="#902D23"/>
<path d="M94.9836 28.2883L94.9228 63.146L94.9836 28.2883Z" fill="#942F24"/>
<path d="M94.9836 28.2883L94.9228 63.146L94.9836 28.2883Z" fill="#993025"/>
<path d="M94.9836 28.2883L94.9228 63.146L94.9836 28.2883Z" fill="#9E3226"/>
<path d="M94.9836 28.2883L94.9228 63.146L94.986 28.2883H94.9836Z" fill="#A23327"/>
<path d="M94.986 28.2883L94.9228 63.146L94.986 28.2883Z" fill="#A73528"/>
<path d="M94.986 28.2883L94.9228 63.146L94.986 28.2883Z" fill="#AC3629"/>
<path d="M94.986 28.2883L94.9228 63.146L94.9883 28.2883H94.986Z" fill="#B0372B"/>
<path d="M94.9883 28.2883L94.9228 63.146L94.9883 28.2883Z" fill="#B5392C"/>
<path d="M94.9883 28.2883L94.9228 63.146L94.9883 28.2883Z" fill="#BA3A2D"/>
<path d="M94.9883 28.2883L94.9228 63.146L94.9906 28.2883H94.9883Z" fill="#BE3C2E"/>
<path d="M94.9906 28.2883L94.9228 63.146L94.9906 28.2883Z" fill="#C33D2F"/>
<path d="M94.9906 28.2883L94.9228 63.146L94.9953 28.2883C94.9953 28.2883 94.9953 28.2883 94.993 28.2883" fill="#C83F30"/>
<path d="M94.9952 28.2858L94.9227 63.1459L94.9976 28.2858H94.9952Z" fill="#C33D2F"/>
<path d="M94.9976 28.2858L94.9227 63.1459L94.9976 28.2858Z" fill="#BE3C2E"/>
<path d="M94.9976 28.2858L94.9227 63.1459L94.9976 28.2858Z" fill="#BA3A2D"/>
<path d="M94.9976 28.2858L94.9227 63.1459L94.9976 28.2858Z" fill="#B5392C"/>
<path d="M94.9976 28.2858L94.9227 63.1459L94.9999 28.2858H94.9976Z" fill="#B0372B"/>
<path d="M94.9999 28.2858L94.9227 63.1459L94.9999 28.2858Z" fill="#AC3629"/>
<path d="M94.9999 28.2858L94.9227 63.1459L94.9999 28.2858Z" fill="#A73528"/>
<path d="M94.9999 28.2858L94.9227 63.1459L94.9999 28.2858Z" fill="#A23327"/>
<path d="M94.9999 28.2858L94.9227 63.1459L94.9999 28.2858Z" fill="#9E3226"/>
<path d="M94.9999 28.2858L94.9227 63.1459L94.9999 28.2858Z" fill="#993025"/>
<path d="M95 28.286L94.9228 63.146L95 28.2837V28.286Z" fill="#942F24"/>
<path d="M95 28.2837L94.9228 63.146L95 28.2837Z" fill="#902D23"/>
<path d="M95 28.2837L94.9228 63.146L95 28.2837Z" fill="#8B2C22"/>
<path d="M95 28.2837L94.9228 63.146L95 28.2837Z" fill="#872A20"/>
</g>
<mask id="mask8_906_5543" style="mask-type:luminance" maskUnits="userSpaceOnUse" x="93" y="28" width="4" height="36">
<path d="M93.9052 63.1437C93.9216 51.5237 93.9403 39.9036 93.9567 28.2813C93.9567 28.3231 93.9894 28.365 94.062 28.4068C94.3123 28.5486 94.9298 28.6067 95.4398 28.5393C95.8047 28.4905 96.0153 28.3905 96.0153 28.286C96.0153 28.8089 96.0129 29.5061 96.0106 30.029C95.9849 41.068 95.9615 52.107 95.9357 63.1483C95.9357 63.2529 95.7252 63.3505 95.3673 63.3993C94.862 63.4667 94.2538 63.4086 94.0058 63.2692C93.9356 63.2297 93.9005 63.1878 93.9029 63.146L93.9052 63.1437Z" fill="white"/>
</mask>
<g mask="url(#mask8_906_5543)">
<path d="M93.9052 63.1437L93.9567 28.2813C93.9567 28.3231 93.9894 28.365 94.0619 28.4068C94.104 28.43 94.1602 28.4533 94.221 28.4719L94.1649 63.3319C94.104 63.3133 94.0502 63.2924 94.0081 63.2668C93.938 63.2273 93.9029 63.1855 93.9052 63.1437Z" fill="#79261D"/>
<path d="M94.1672 63.3319L94.2234 28.4719C94.2468 28.4788 94.2725 28.4858 94.3006 28.4928L94.2444 63.3505C94.2187 63.3435 94.193 63.3365 94.1696 63.3296" fill="#7D271E"/>
<path d="M94.2445 63.3528L94.3006 28.4951C94.3217 28.4998 94.3427 28.5044 94.3661 28.5114L94.3076 63.3691C94.2842 63.3644 94.2632 63.3598 94.2421 63.3552" fill="#82291F"/>
<path d="M94.3076 63.3691L94.3661 28.5114C94.3848 28.5161 94.4059 28.5207 94.4269 28.523L94.3684 63.3807C94.3474 63.3761 94.3287 63.3738 94.3076 63.3691Z" fill="#872A20"/>
<path d="M94.3684 63.3807L94.4269 28.523C94.4456 28.5253 94.4667 28.53 94.4854 28.5323L94.4269 63.39C94.4082 63.3877 94.3871 63.383 94.3684 63.3807Z" fill="#8B2C22"/>
<path d="M94.4269 63.39L94.4854 28.5323C94.5041 28.5346 94.5229 28.5369 94.5439 28.5416L94.4831 63.3993C94.4644 63.397 94.4457 63.3946 94.4269 63.39Z" fill="#902D23"/>
<path d="M94.483 63.3969L94.5439 28.5392C94.5626 28.5416 94.5813 28.5439 94.6 28.5462L94.5392 63.4039C94.5205 63.4039 94.5017 63.3993 94.483 63.3969Z" fill="#942F24"/>
<path d="M94.5392 63.404L94.6 28.5463C94.6187 28.5463 94.6374 28.5509 94.6562 28.5532L94.5953 63.4109C94.5766 63.4109 94.5579 63.4063 94.5392 63.404Z" fill="#993025"/>
<path d="M94.5953 63.4109L94.6562 28.5532C94.6749 28.5532 94.6936 28.5555 94.7123 28.5579L94.6515 63.4156C94.6328 63.4156 94.6141 63.4132 94.5953 63.4109Z" fill="#9E3226"/>
<path d="M94.6515 63.4156L94.7123 28.5579C94.731 28.5579 94.7497 28.5602 94.7708 28.5625L94.7076 63.4202C94.6889 63.4202 94.6702 63.4179 94.6515 63.4156Z" fill="#A23327"/>
<path d="M94.7076 63.4202L94.7708 28.5625C94.7895 28.5625 94.8082 28.5625 94.8293 28.5648L94.7661 63.4225C94.7474 63.4225 94.7287 63.4225 94.71 63.4202" fill="#A73528"/>
<path d="M94.7661 63.4225L94.8293 28.5648C94.848 28.5648 94.869 28.5648 94.8877 28.5648L94.8246 63.4225C94.8059 63.4225 94.7872 63.4225 94.7661 63.4225Z" fill="#AC3629"/>
<path d="M94.8223 63.4248L94.8855 28.5671C94.9042 28.5671 94.9252 28.5671 94.9439 28.5671L94.8784 63.4248C94.8597 63.4248 94.841 63.4248 94.8199 63.4248" fill="#B0372B"/>
<path d="M94.8807 63.4248L94.9462 28.5671C94.9649 28.5671 94.986 28.5671 95.0047 28.5671L94.9392 63.4248C94.9205 63.4248 94.8995 63.4248 94.8807 63.4248Z" fill="#B5392C"/>
<path d="M94.9392 63.4272L95.0047 28.5695C95.0258 28.5695 95.0445 28.5695 95.0655 28.5695L95 63.4272C94.979 63.4272 94.9603 63.4272 94.9392 63.4272Z" fill="#BA3A2D"/>
<path d="M95.0001 63.4248L95.0656 28.5671C95.0866 28.5671 95.11 28.5671 95.1311 28.5671L95.0632 63.4248C95.0422 63.4248 95.0211 63.4248 94.9977 63.4248" fill="#BE3C2E"/>
<path d="M95.0632 63.4249L95.1311 28.5671C95.1592 28.5671 95.1849 28.5671 95.213 28.5625L95.1451 63.4202C95.1194 63.4202 95.0913 63.4225 95.0656 63.4249" fill="#C33D2F"/>
<path d="M95.1451 63.4202L95.2129 28.5625C95.2901 28.5579 95.3673 28.5509 95.4422 28.5416C95.4983 28.5346 95.5498 28.5253 95.5966 28.5161L95.5241 63.3738C95.4773 63.3831 95.4258 63.3924 95.3697 63.3993C95.2948 63.4086 95.22 63.4156 95.1428 63.4202" fill="#C83F30"/>
<path d="M95.5241 63.3737L95.5966 28.516C95.6317 28.5091 95.6668 28.5021 95.6972 28.4928L95.6223 63.3528C95.5919 63.3621 95.5568 63.3691 95.5217 63.3761" fill="#C33D2F"/>
<path d="M95.6246 63.3505L95.6995 28.4905C95.7229 28.4835 95.7463 28.4765 95.7673 28.4719L95.6925 63.3319C95.6714 63.3389 95.648 63.3458 95.6246 63.3505Z" fill="#BE3C2E"/>
<path d="M95.6925 63.3296L95.7674 28.4696C95.7861 28.4649 95.8025 28.458 95.8188 28.451L95.744 63.311C95.7276 63.318 95.7112 63.3226 95.6925 63.3273" fill="#BA3A2D"/>
<path d="M95.7416 63.3133L95.8165 28.4533C95.8305 28.4486 95.8446 28.4417 95.8586 28.437L95.7837 63.297C95.772 63.3017 95.758 63.3087 95.744 63.3133" fill="#B5392C"/>
<path d="M95.7837 63.2971L95.8586 28.437C95.8703 28.4324 95.882 28.4254 95.8913 28.4208L95.8141 63.2808C95.8141 63.2808 95.7931 63.2924 95.7814 63.2971" fill="#B0372B"/>
<path d="M95.8165 63.2808L95.8937 28.4207C95.8937 28.4207 95.9124 28.4115 95.9217 28.4045L95.8445 63.2645C95.8445 63.2645 95.8258 63.2738 95.8165 63.2808Z" fill="#AC3629"/>
<path d="M95.8445 63.2645L95.9217 28.4045C95.9217 28.4045 95.9381 28.3952 95.9451 28.3882L95.8679 63.2483C95.8679 63.2483 95.8516 63.2576 95.8445 63.2645Z" fill="#A73528"/>
<path d="M95.8679 63.2506L95.9451 28.3905C95.9451 28.3905 95.9592 28.3812 95.9662 28.3743L95.889 63.2343C95.889 63.2343 95.8749 63.2436 95.8679 63.2506Z" fill="#A23327"/>
<path d="M95.889 63.2343L95.9662 28.3743C95.9662 28.3743 95.9779 28.3627 95.9825 28.358L95.9054 63.2181C95.9054 63.2181 95.8937 63.2297 95.889 63.2343Z" fill="#9E3226"/>
<path d="M95.9053 63.218L95.9825 28.358C95.9825 28.358 95.9919 28.3464 95.9966 28.3417L95.9194 63.2018C95.9194 63.2018 95.91 63.2134 95.9053 63.218Z" fill="#993025"/>
<path d="M95.9194 63.2017L95.9966 28.3417C95.9966 28.3417 96.0036 28.3301 96.0059 28.3254L95.9287 63.1855C95.9287 63.1855 95.9217 63.1971 95.9194 63.2017Z" fill="#942F24"/>
<path d="M95.9311 63.1855L96.0083 28.3255C96.0083 28.3255 96.013 28.3139 96.0153 28.3069L95.9381 63.1669C95.9381 63.1669 95.9334 63.1785 95.9311 63.1855Z" fill="#902D23"/>
<path d="M95.9381 63.1692L96.0153 28.3092C96.0153 28.3092 96.0176 28.2976 96.0176 28.2906L95.9404 63.1529C95.9404 63.1529 95.9404 63.1646 95.9381 63.1715" fill="#8B2C22"/>
<path d="M95.9404 63.1506L96.0176 28.2883C96.0176 28.2883 96.0176 28.2883 96.0176 28.2859L95.9404 63.1483C95.9404 63.1483 95.9404 63.1483 95.9404 63.1506Z" fill="#872A20"/>
</g>
<path d="M95.9124 28.1605C96.1627 28.3022 95.9521 28.4719 95.4422 28.5393C94.9322 28.6067 94.3146 28.5486 94.0643 28.4068C93.814 28.2651 94.0245 28.0954 94.5345 28.028C95.0445 27.9606 95.6621 28.0187 95.9124 28.1605ZM95 28.2813C95 28.2813 94.9883 28.279 94.9837 28.2813C94.979 28.2837 94.9743 28.2837 94.979 28.286C94.9837 28.2883 94.9907 28.2883 94.9954 28.286C95 28.2837 95.0047 28.2837 95 28.2813Z" fill="#A43428"/>
</g>
<defs>
<clipPath id="clip0_906_5543">
<rect width="72" height="64" fill="white" transform="translate(24 28)"/>
</clipPath>
</defs>
</svg>
