<svg width="310" height="92" viewBox="0 0 310 92" fill="none" xmlns="http://www.w3.org/2000/svg">
<path d="M46.3836 36.1793C45.7683 30.7931 43.8639 25.7007 40.8461 21.4244L39.1175 17.6051C36.0997 10.9131 30.0641 6.73474 23.3254 6.73474C15.649 6.73474 8.9103 12.1862 6.53708 20.3471L1.79066 36.6363C0.149923 40.7821 -0.377457 45.3522 0.267119 49.857L1.20468 81.1297V81.4887C1.46837 83.0883 2.17155 84.5572 3.22631 85.6344L3.63649 86.0915C5.62882 88.2133 9.14469 91.9999 16.1178 91.9999C18.9305 91.9999 22.2706 91.3798 26.3138 89.8455C27.1342 89.5191 27.896 89.0294 28.5113 88.4092C29.7711 87.1687 30.5915 85.4059 30.738 83.4473L34.664 58.9973L35.836 62.4575C36.5978 64.6772 38.1799 66.3747 40.2308 67.0602C42.2817 67.7457 44.4499 67.354 46.1785 65.983C48.2294 64.3508 49.3135 61.6087 48.9912 58.834L46.3836 36.1793Z" fill="#EA4C22"/>
<path d="M13.5378 -1.37115e-05L10.6904 13.7741L41.2976 21.6282L44.1449 7.85407L13.5378 -1.37115e-05Z" fill="black"/>
<mask id="mask0_901_368" style="mask-type:luminance" maskUnits="userSpaceOnUse" x="0" y="6" width="50" height="86">
<path d="M46.3836 36.1793C45.7683 30.7931 43.8639 25.7007 40.8461 21.4244L39.1175 17.6051C36.0997 10.9131 30.0641 6.73474 23.3254 6.73474C15.649 6.73474 8.9103 12.1862 6.53708 20.3471L1.79066 36.6363C0.149923 40.7821 -0.377457 45.3522 0.267119 49.857L1.20468 81.1297V81.4887C1.46837 83.0883 2.17155 84.5572 3.22631 85.6344L3.63649 86.0915C5.62882 88.2133 9.14469 91.9999 16.1178 91.9999C18.9305 91.9999 22.2706 91.3798 26.3138 89.8455C27.1342 89.5191 27.896 89.0294 28.5113 88.4092C29.7711 87.1687 30.5915 85.4059 30.738 83.4473L34.664 58.9973L35.836 62.4575C36.5978 64.6772 38.1799 66.3747 40.2308 67.0602C42.2817 67.7457 44.4499 67.354 46.1785 65.983C48.2294 64.3508 49.3135 61.6087 48.9912 58.834L46.3836 36.1793Z" fill="white"/>
</mask>
<g mask="url(#mask0_901_368)">
<path d="M31.2946 91.1838L26.2552 90.5309L30.4156 50.4772C30.5328 49.2041 31.4118 48.1921 32.5544 47.9962C33.6971 47.8004 34.7811 48.4859 35.2499 49.6611L42.8676 68.9208L38.2091 71.2059L34.371 61.4781L31.2946 91.1838Z" fill="black"/>
<path d="M23.8873 54.3284L21.4548 91.7707L22.7114 91.872L25.1439 54.4298L23.8873 54.3284Z" fill="black"/>
<path d="M15.0045 54.9168H13.7446V93.0445H15.0045V54.9168Z" fill="black"/>
<path d="M6.18451 57.9086L4.9257 57.9657L6.13352 91.039L7.39233 90.9819L6.18451 57.9086Z" fill="black"/>
</g>
<path d="M262.844 36.3755C263.457 31.0082 265.354 25.9337 268.362 21.6724L270.084 17.8665C273.091 11.1981 279.106 7.03439 285.821 7.03439C293.47 7.03439 300.185 12.4668 302.55 20.599L307.28 36.8309C308.915 40.9621 309.44 45.5161 308.798 50.0051L307.864 81.1678V81.5256C307.601 83.1196 306.9 84.5834 305.849 85.6568L305.44 86.1122C303.455 88.2266 299.952 92 293.003 92C290.2 92 286.872 91.3819 282.843 89.853C282.025 89.5277 281.266 89.0398 280.653 88.4218C279.398 87.1857 278.58 85.4291 278.434 83.4773L274.522 59.1132L273.354 62.5613C272.595 64.7732 271.018 66.4648 268.975 67.1479C266.931 67.831 264.77 67.4406 263.048 66.0744C261.004 64.448 259.924 61.7155 260.245 58.9506L262.844 36.3755Z" fill="#EA4C22"/>
<path d="M295.528 0.380681L265.029 8.20715L267.866 21.9328L298.365 14.1064L295.528 0.380681Z" fill="black"/>
<mask id="mask1_901_368" style="mask-type:luminance" maskUnits="userSpaceOnUse" x="260" y="7" width="50" height="85">
<path d="M262.844 36.3755C263.457 31.0082 265.354 25.9337 268.362 21.6724L270.084 17.8665C273.091 11.1981 279.106 7.03439 285.821 7.03439C293.47 7.03439 300.185 12.4668 302.55 20.599L307.28 36.8309C308.915 40.9621 309.44 45.5161 308.798 50.0051L307.864 81.1678V81.5256C307.601 83.1196 306.9 84.5834 305.849 85.6568L305.44 86.1122C303.455 88.2266 299.952 92 293.003 92C290.2 92 286.872 91.3819 282.843 89.853C282.025 89.5277 281.266 89.0398 280.653 88.4218C279.398 87.1857 278.58 85.4291 278.434 83.4773L274.522 59.1132L273.354 62.5613C272.595 64.7732 271.018 66.4648 268.975 67.1479C266.931 67.831 264.77 67.4406 263.048 66.0744C261.004 64.448 259.924 61.7155 260.245 58.9506L262.844 36.3755Z" fill="white"/>
</mask>
<g mask="url(#mask1_901_368)">
<path d="M277.908 91.1868L274.843 61.5854L271.018 71.279L266.376 69.002L273.967 49.81C274.434 48.6389 275.514 47.9883 276.653 48.151C277.792 48.3462 278.667 49.3546 278.784 50.6232L282.93 90.5362L277.908 91.1868Z" fill="black"/>
<path d="M285.217 54.5129L283.965 54.6143L286.401 91.924L287.653 91.8226L285.217 54.5129Z" fill="black"/>
<path d="M295.368 55.0472H294.112V93.0409H295.368V55.0472Z" fill="black"/>
<path d="M302.886 58.064L301.682 91.0211L302.937 91.0779L304.14 58.1209L302.886 58.064Z" fill="black"/>
</g>
</svg>
