<svg width="403" height="365" viewBox="0 0 403 365" fill="none" xmlns="http://www.w3.org/2000/svg">
<path d="M290.321 225.552C233.35 241.196 172.406 241.196 115.435 225.552C113.068 224.901 111.756 222.65 112.517 220.554C113.737 217.207 114.957 213.865 116.176 210.518C116.923 208.468 119.378 207.331 121.688 207.964C174.588 222.462 231.163 222.462 284.062 207.964C286.373 207.331 288.828 208.468 289.574 210.518C290.794 213.865 292.014 217.207 293.233 220.554C294 222.654 292.683 224.905 290.315 225.552H290.321Z" fill="#E2B118"/>
<path d="M156.5 1.5C155.5 1.5 153.5 2.49995 152.5 2.49993L144.5 4.5C141 5.5 137 7 135.97 8.04643L130.766 17.3217C123.948 29.481 120.396 42.8919 120.396 56.4862V213.658H137.4V57.8159C137.4 45.973 140.138 34.2952 145.331 23.4518L147 18.5C150.376 11.861 149.933 6.71766 156.5 1.5Z" fill="#E2B118"/>
<path d="M270.301 16.3138L265.098 7.03845C264 6 262.5 5 258.5 4L250.5 2C247.5 1.5 246 0.5 242.5 0.5C251.321 5.2454 249.784 8.63602 253.5 14.9999L255.737 22.4438C260.93 33.2872 263.668 44.965 263.668 56.8079V212.65H280.671V55.4783C280.671 41.8839 277.12 28.4776 270.301 16.3138Z" fill="#E2B118"/>
<path d="M279.751 68.6966H121.766C121.473 68.6966 121.19 68.6691 120.912 68.6186C118.987 68.2656 117.536 66.748 117.536 64.9278V54.0156C117.536 52.1954 118.987 50.6778 120.912 50.3248C121.185 50.2743 121.473 50.2468 121.766 50.2468H279.751C280.008 50.2468 280.26 50.2652 280.502 50.3064C282.478 50.6228 283.981 52.1633 283.981 54.0156V64.9278C283.981 66.7342 282.556 68.2427 280.651 68.6095C280.363 68.6645 280.06 68.6966 279.751 68.6966Z" fill="#E2B118"/>
<path d="M279.236 69.7372H264.841C264.193 69.7372 263.673 69.2695 263.673 68.6964C263.673 68.1233 264.198 67.6556 264.841 67.6556H279.236C279.884 67.6556 280.404 68.1233 280.404 68.6964C280.404 69.2695 279.879 69.7372 279.236 69.7372Z" fill="#A08338"/>
<path d="M279.236 51.2874H264.564C263.915 51.2874 263.395 50.8197 263.395 50.2466C263.395 49.6735 263.92 49.2058 264.564 49.2058H279.236C279.884 49.2058 280.404 49.6735 280.404 50.2466C280.404 50.8197 279.879 51.2874 279.236 51.2874Z" fill="#A08338"/>
<path d="M137.031 69.7372H122.636C121.988 69.7372 121.468 69.2695 121.468 68.6964C121.468 68.1233 121.993 67.6556 122.636 67.6556H137.031C137.679 67.6556 138.199 68.1233 138.199 68.6964C138.199 69.2695 137.674 69.7372 137.031 69.7372Z" fill="#A08338"/>
<path d="M137.03 51.2874H122.358C121.709 51.2874 121.19 50.8197 121.19 50.2466C121.19 49.6735 121.715 49.2058 122.358 49.2058H137.03C137.679 49.2058 138.199 49.6735 138.199 50.2466C138.199 50.8197 137.674 51.2874 137.03 51.2874Z" fill="#A08338"/>
<path d="M234.503 75.8994H233.124C229.372 75.8994 226.315 73.1805 226.315 69.8335C226.315 68.9807 227.093 68.293 228.045 68.293C228.997 68.293 229.774 68.9853 229.774 69.8335C229.774 71.4749 231.277 72.8137 233.119 72.8137H234.498C237.838 72.8137 240.556 70.3929 240.556 67.4173V51.5213C240.556 48.5457 237.838 46.1248 234.498 46.1248H233.119C231.277 46.1248 229.774 47.4636 229.774 49.1051C229.774 49.9578 228.997 50.6456 228.045 50.6456C227.093 50.6456 226.315 49.9533 226.315 49.1051C226.315 45.7626 229.367 43.0392 233.124 43.0392H234.503C239.753 43.0392 244.019 46.8447 244.019 51.5167V67.4127C244.019 72.0893 239.748 75.8902 234.503 75.8902V75.8994Z" fill="#3A5870"/>
<path d="M228.05 69.7371C227.402 69.7371 226.882 69.2695 226.882 68.6964V50.2466C226.882 49.6689 227.407 49.2058 228.05 49.2058C228.693 49.2058 229.218 49.6735 229.218 50.2466V68.6964C229.218 69.2741 228.693 69.7371 228.05 69.7371Z" fill="#BB8C05"/>
<path d="M178.387 243.199C178.31 243.199 178.232 243.199 178.155 243.199L176.776 243.158C174.234 243.08 171.882 242.126 170.142 240.476C168.408 238.821 167.497 236.661 167.585 234.401L168.187 218.514C168.362 213.842 172.777 210.174 178.021 210.325L179.401 210.366C181.217 210.421 182.9 211.105 184.146 212.288C185.386 213.47 186.04 215.016 185.978 216.634C185.947 217.487 185.149 218.152 184.187 218.124C183.23 218.097 182.483 217.381 182.514 216.529C182.545 215.731 182.226 214.974 181.614 214.392C181.001 213.81 180.178 213.475 179.282 213.448L177.903 213.406C174.573 213.305 171.758 215.644 171.645 218.615L171.043 234.502C170.93 237.473 173.554 239.976 176.889 240.077L178.268 240.118C180.111 240.169 181.66 238.88 181.727 237.239C181.758 236.386 182.566 235.73 183.518 235.749C184.475 235.776 185.221 236.491 185.19 237.344C185.067 240.618 182.041 243.204 178.392 243.204L178.387 243.199Z" fill="#3A5870"/>
<path d="M183.497 237.193C183.497 237.193 183.471 237.193 183.455 237.193C182.812 237.174 182.303 236.693 182.328 236.115L183.028 217.679C183.049 217.101 183.599 216.652 184.238 216.67C184.881 216.689 185.39 217.17 185.365 217.748L184.665 236.184C184.644 236.748 184.124 237.193 183.497 237.193Z" fill="#BB8C05"/>
<path d="M138.615 106.903C137.9 106.903 137.313 106.385 137.313 105.743C137.313 105.101 137.895 104.583 138.615 104.583C140 104.583 141.127 103.579 141.127 102.345V101.424C141.127 99.191 139.089 97.3754 136.583 97.3754H123.187C120.68 97.3754 118.642 99.191 118.642 101.424V102.345C118.642 103.579 119.769 104.583 121.154 104.583C121.869 104.583 122.456 105.101 122.456 105.743C122.456 106.385 121.874 106.903 121.154 106.903C118.333 106.903 116.043 104.863 116.043 102.35V101.428C116.043 97.921 119.25 95.0646 123.187 95.0646H136.583C140.525 95.0646 143.726 97.921 143.726 101.428V102.35C143.726 104.863 141.436 106.903 138.615 106.903Z" fill="#3A5870"/>
<path d="M137.658 106.527H122.111C121.627 106.527 121.231 106.179 121.231 105.743C121.231 105.307 121.622 104.959 122.111 104.959H137.658C138.142 104.959 138.538 105.307 138.538 105.743C138.538 106.179 138.147 106.527 137.658 106.527Z" fill="#BB8C05"/>
<path d="M281.623 106.903C280.908 106.903 280.321 106.385 280.321 105.743C280.321 105.101 280.903 104.583 281.623 104.583C283.008 104.583 284.135 103.579 284.135 102.345V101.424C284.135 99.191 282.097 97.3754 279.591 97.3754H266.194C263.688 97.3754 261.65 99.191 261.65 101.424V102.345C261.65 103.579 262.777 104.583 264.162 104.583C264.877 104.583 265.464 105.101 265.464 105.743C265.464 106.385 264.882 106.903 264.162 106.903C261.341 106.903 259.051 104.863 259.051 102.35V101.428C259.051 97.921 262.257 95.0646 266.194 95.0646H279.591C283.533 95.0646 286.734 97.921 286.734 101.428V102.35C286.734 104.863 284.444 106.903 281.623 106.903Z" fill="#3A5870"/>
<path d="M280.666 106.527H265.119C264.635 106.527 264.239 106.179 264.239 105.743C264.239 105.307 264.63 104.959 265.119 104.959H280.666C281.15 104.959 281.546 105.307 281.546 105.743C281.546 106.179 281.155 106.527 280.666 106.527Z" fill="#BB8C05"/>
<path d="M119.5 313C139 313 185 320 200 321.5M207.5 324C227 322 272 319 286.5 319" stroke="#E2B118" stroke-width="17"/>
</svg>
