<svg width="269" height="247" viewBox="0 0 269 247" fill="none" xmlns="http://www.w3.org/2000/svg">
<g clip-path="url(#clip0_904_1211)">
<path d="M36.8531 210.113C35.0311 208.287 32.8678 207.396 32.0794 208.186C31.291 208.976 31.9256 211.4 33.7476 213.226C35.5696 215.052 37.9444 215.64 38.728 214.849C39.5116 214.059 38.6751 211.939 36.8531 210.113Z" fill="#231F20"/>
<path d="M238.113 0.775695L233.676 5.22272C232.642 6.25859 232.642 7.94971 233.676 8.98076L236.901 12.2136C237.329 12.6424 237.868 12.8882 238.425 12.9653C242.391 16.3812 263.409 34.1019 264.486 35.0269C265.664 36.0387 267.12 37.3299 268.13 36.3181L268.635 35.8122C269.644 34.8005 268.356 33.3406 267.346 32.1602C266.457 31.1195 250.223 11.7415 245.776 6.5573C246.002 5.67561 245.776 4.69274 245.088 4.00376L241.863 0.770877C240.829 -0.264995 239.142 -0.264995 238.113 0.770877V0.775695Z" fill="#231F20"/>
<path d="M233.671 8.98076L236.897 12.2136C237.324 12.6424 237.863 12.8882 238.42 12.9653C242.387 16.3812 263.404 34.1019 264.481 35.0269C265.659 36.0387 267.116 37.3299 268.125 36.3181L268.63 35.8123C269.067 35.3738 269.072 34.8535 268.856 34.3042C260.856 26.7014 241.372 8.20506 239.416 6.53321C237.771 5.12635 235.988 4.70719 234.219 4.67346L233.671 5.22272C232.637 6.25859 232.637 7.94971 233.671 8.98076Z" fill="#514C4C"/>
<path d="M236.238 14.7142C238.728 14.7142 240.747 12.6908 240.747 10.1949C240.747 7.69897 238.728 5.67561 236.238 5.67561C233.748 5.67561 231.729 7.69897 231.729 10.1949C231.729 12.6908 233.748 14.7142 236.238 14.7142Z" fill="#231F20"/>
<path d="M232.926 7.38119L18.9217 221.86L25.0896 228.041L239.089 13.5627C240.79 11.8571 240.79 9.08676 239.089 7.38119C237.387 5.67561 234.623 5.67561 232.921 7.38119H232.926Z" fill="#A7A9AC"/>
<mask id="mask0_904_1211" style="mask-type:luminance" maskUnits="userSpaceOnUse" x="18" y="6" width="223" height="223">
<path d="M232.926 7.38119L18.9217 221.86L25.0896 228.041L239.089 13.5627C240.79 11.8571 240.79 9.08676 239.089 7.38119C237.387 5.67561 234.623 5.67561 232.921 7.38119H232.926Z" fill="white"/>
</mask>
<g mask="url(#mask0_904_1211)">
<path d="M237.738 3.68628L19.407 222.501L20.284 223.38L238.615 4.56524L237.738 3.68628Z" fill="url(#paint0_linear_904_1211)"/>
</g>
<path d="M234.233 13.6687C235.016 13.6687 235.651 13.0323 235.651 12.2474C235.651 11.4624 235.016 10.8261 234.233 10.8261C233.45 10.8261 232.815 11.4624 232.815 12.2474C232.815 13.0323 233.45 13.6687 234.233 13.6687Z" fill="#231F20"/>
<path d="M33.7235 213.202C32.2862 211.761 31.7477 209.795 32.1564 208.109L1.3749 238.959C-0.461505 240.799 -0.461505 243.782 1.3749 245.622C3.21131 247.463 6.18706 247.463 8.02347 245.622L38.8001 214.777C37.1175 215.187 35.1609 214.647 33.7187 213.207L33.7235 213.202Z" fill="#414042"/>
<path d="M35.4205 217.239C34.0793 217.485 32.6371 216.777 31.3968 215.534C30.1565 214.291 29.4498 212.845 29.695 211.501" stroke="#231F20" stroke-width="1.01" stroke-linecap="round" stroke-linejoin="round"/>
<path d="M32.7573 219.908C31.416 220.154 29.9738 219.446 28.7335 218.203C27.4932 216.96 26.7866 215.514 27.0317 214.17" stroke="#231F20" stroke-width="1.01" stroke-linecap="round" stroke-linejoin="round"/>
<path d="M30.094 222.578C28.7528 222.823 27.3106 222.115 26.0703 220.872C24.83 219.629 24.1233 218.184 24.3685 216.839" stroke="#231F20" stroke-width="1.01" stroke-linecap="round" stroke-linejoin="round"/>
<path d="M27.4307 225.247C26.0895 225.492 24.6473 224.784 23.407 223.541C22.1667 222.298 21.46 220.853 21.7052 219.508" stroke="#231F20" stroke-width="1.01" stroke-linecap="round" stroke-linejoin="round"/>
<path d="M24.7675 227.916C23.4262 228.162 21.984 227.453 20.7437 226.21C19.5034 224.967 18.7967 223.522 19.0419 222.178" stroke="#231F20" stroke-width="1.01" stroke-linecap="round" stroke-linejoin="round"/>
<path d="M22.0994 230.585C20.7581 230.831 19.3159 230.123 18.0756 228.879C16.8353 227.636 16.1287 226.191 16.3738 224.847" stroke="#231F20" stroke-width="1.01" stroke-linecap="round" stroke-linejoin="round"/>
<path d="M19.4361 233.259C18.0949 233.505 16.6527 232.797 15.4124 231.553C14.1721 230.31 13.4654 228.865 13.7106 227.521" stroke="#231F20" stroke-width="1.01" stroke-linecap="round" stroke-linejoin="round"/>
<path d="M16.7728 235.928C15.4316 236.174 13.9894 235.466 12.7491 234.223C11.5088 232.98 10.8021 231.534 11.0473 230.19" stroke="#231F20" stroke-width="1.01" stroke-linecap="round" stroke-linejoin="round"/>
<path d="M14.1096 238.597C12.7683 238.843 11.3261 238.135 10.0858 236.892C8.84552 235.649 8.13884 234.203 8.38401 232.859" stroke="#231F20" stroke-width="1.01" stroke-linecap="round" stroke-linejoin="round"/>
<path d="M11.4463 241.267C10.105 241.512 8.66284 240.804 7.42255 239.561C6.18225 238.318 5.47557 236.873 5.72074 235.528" stroke="#231F20" stroke-width="1.01" stroke-linecap="round" stroke-linejoin="round"/>
<path d="M8.78303 243.936C7.44178 244.181 5.99957 243.473 4.75928 242.23C3.51898 240.987 2.8123 239.542 3.05748 238.198" stroke="#231F20" stroke-width="1.01" stroke-linecap="round" stroke-linejoin="round"/>
</g>
<defs>
<linearGradient id="paint0_linear_904_1211" x1="129.453" y1="113.976" x2="128.574" y2="113.099" gradientUnits="userSpaceOnUse">
<stop stop-color="#85878D"/>
<stop offset="0.53" stop-color="#979899"/>
<stop offset="1" stop-color="#5D5C62"/>
</linearGradient>
<clipPath id="clip0_904_1211">
<rect width="269" height="247" fill="white"/>
</clipPath>
</defs>
</svg>
