<svg width="54" height="92" viewBox="0 0 54 92" fill="none" xmlns="http://www.w3.org/2000/svg">
<g clip-path="url(#clip0_904_1722)">
<path d="M51.9467 78.8242L49.8988 75.0202C49.1982 73.7204 43.0654 75.08 38.0245 65.7234C32.9837 56.3668 22.453 36.8367 22.453 36.8367L19.0378 38.6408L15.6226 40.4448C15.6226 40.4448 26.1369 59.9829 31.1777 69.3395C36.2185 78.6961 31.6602 82.9812 32.3609 84.281C33.0616 85.5807 34.4092 88.0871 34.4092 88.0871L51.9467 78.8242Z" fill="#E52C23"/>
<path d="M29.8698 50.6063L7.9896 8.59365C6.99033 6.73869 4.65136 6.04476 2.7661 7.04124C0.878676 8.03818 0.160349 10.3489 1.15917 12.2018L23.0393 54.2145L29.8719 50.6059L29.8698 50.6063Z" fill="#E52C23"/>
<path d="M29.8698 50.6063L7.98965 8.59363C7.31541 7.34387 6.03283 6.62374 4.69044 6.5905C4.47227 6.65906 4.256 6.74724 4.0447 6.85884C2.15728 7.85578 1.43895 10.1665 2.43777 12.0194L24.1101 53.649L29.8677 50.6068L29.8698 50.6063Z" fill="#F15F22"/>
<path d="M28.3519 54.6532C29.9426 53.8127 30.6225 52.0019 29.8698 50.6063L24.1123 53.6485C24.8649 55.0441 26.7612 55.4938 28.3519 54.6532Z" fill="#F15F22"/>
<path d="M49.2047 78.0089L34.4792 85.7872L34.8892 86.5479L50.3887 78.3606L48.9455 75.6809C48.7554 75.5944 48.3147 75.4766 47.9508 75.3803C47.8887 75.3645 47.8262 75.3467 47.7619 75.3314L49.2051 78.0111L49.2047 78.0089Z" fill="#F15F22"/>
<path d="M34.5911 77.6286C34.6861 75.3834 35.346 73.0205 33.347 69.3085C31.71 66.2694 29.4952 62.1582 27.2522 57.9884L26.5674 58.3496C28.6492 62.2176 30.6733 65.9733 32.1953 68.8009C34.182 72.4866 34.6779 75.3874 34.5906 77.6265L34.5911 77.6286Z" fill="#F15F22"/>
</g>
<defs>
<clipPath id="clip0_904_1722">
<rect width="36" height="86" fill="white" transform="translate(53.072 84.1257) rotate(168.016)"/>
</clipPath>
</defs>
</svg>
