<svg width="120" height="120" viewBox="0 0 120 120" fill="none" xmlns="http://www.w3.org/2000/svg">
<rect width="120" height="120" rx="60" fill="white"/>
<g clip-path="url(#clip0_906_5539)">
<path d="M48.1095 23.5617L46.1167 23.0119C45.9331 22.9612 45.7436 23.0705 45.6935 23.2559L26.0125 96.0098C25.9624 96.1952 26.0706 96.3865 26.2541 96.4372L28.2469 96.987C28.4305 97.0376 28.62 96.9284 28.6702 96.743L48.3511 23.9891C48.4013 23.8037 48.2931 23.6123 48.1095 23.5617Z" fill="#4C342F"/>
<path d="M85.4438 71.1162C72.5146 55.3119 50.3455 73.6696 37.4163 57.8653C40.2689 47.3205 43.1216 36.7775 45.9725 26.2327C58.9017 42.0369 81.0708 23.6793 94 39.4835C91.1473 50.0283 88.2946 60.5713 85.4438 71.1162Z" fill="#ED1C24"/>
</g>
<defs>
<clipPath id="clip0_906_5539">
<rect width="68" height="74" fill="white" transform="translate(26 23)"/>
</clipPath>
</defs>
</svg>
