<svg width="120" height="120" viewBox="0 0 120 120" fill="none" xmlns="http://www.w3.org/2000/svg">
<rect width="120" height="120" rx="60" fill="white"/>
<path d="M41.3433 26.4371L41.3647 26.462C41.444 26.5537 41.5835 26.5646 41.6764 26.4864L48.9629 20.3488C49.0558 20.2706 49.0669 20.1328 48.9876 20.0411L48.9662 20.0162C48.887 19.9245 48.7475 19.9136 48.6546 19.9918L41.368 26.1294C41.2752 26.2076 41.2641 26.3454 41.3433 26.4371Z" fill="#231F20"/>
<path d="M45.5675 26.3897C45.9806 26.1959 47.1457 25.6247 47.4328 25.488C47.0961 24.776 47.6725 24.321 47.7716 23.5478C47.8625 22.8358 47.5506 21.934 47.4473 21.7708C47.2655 21.4791 46.7388 20.5977 46.7388 20.5977C46.5033 20.461 46.3979 20.7426 46.3545 20.8793C46.2698 21.1424 46.5735 21.6545 46.5735 21.6545C46.6499 21.8381 46.7863 22.1401 46.7016 22.3135C46.6375 22.3461 46.5735 21.6545 46.5735 21.6545C46.2161 21.1914 45.5861 21.1118 45.0882 21.4117C44.7288 21.2771 43.8447 22.2196 43.5348 22.4339C43.1692 22.6868 43.3964 22.9296 43.2993 23.5906C43.194 24.2965 43.9707 24.3659 44.1835 24.9025" fill="#A87C4F"/>
<path d="M63.5972 39.5079L54.1155 34.5789C54.1155 34.5789 49.5482 27.1731 48.0278 24.7045C47.9369 24.5556 47.7634 24.6107 47.5898 24.5903C46.3525 24.4536 44.5594 25.188 43.4067 26.6427C43.2952 26.7834 43.194 26.9262 43.2807 27.0813C44.6689 29.5213 46.8978 34.9216 48.2323 37.4331C48.5835 38.0961 49.1205 38.647 49.7423 39.0734C52.2295 40.7728 59.6868 45.8732 59.6868 45.8732C61.5211 47.1279 64.0517 46.5465 65.1362 44.6206C66.167 42.7906 65.4708 40.4831 63.5951 39.5079H63.5972Z" fill="#F16522"/>
<path d="M59.7054 101.123C59.0505 102.478 57.6314 102.557 55.45 103.126C52.0808 104.006 51.5912 104.348 49.9179 104.134C48.5318 103.957 47.5238 102.476 48.1662 101.957C49.6432 100.764 51.3206 100.597 54.2023 99.7009C56.0841 99.1154 57.1273 98.7318 58.1705 98.995C59.0381 99.2133 60.2156 100.068 59.7074 101.123H59.7054Z" fill="#3B3B3B"/>
<path d="M59.6847 100.623C59.3273 102.082 57.5219 102.161 55.3384 102.731C51.9692 103.61 51.6862 103.883 50.046 103.647C48.8768 103.477 47.4762 102.38 48.1187 101.861C49.5957 100.668 51.2008 100.607 54.0824 99.7111C55.9643 99.1256 56.9249 98.6114 57.9702 98.8726C58.8378 99.0909 59.9429 99.5662 59.6847 100.623Z" fill="#696969"/>
<path d="M73.0212 101.992C72.9613 103.324 71.728 103.738 70.0073 104.763C67.3487 106.344 67.0429 106.758 65.473 106.978C64.1716 107.162 62.5934 106.144 62.9652 105.538C63.8204 104.144 65.3594 103.573 67.578 102.098C69.0281 101.133 69.8069 100.548 70.8356 100.523C71.6908 100.501 73.0687 100.958 73.0212 101.992Z" fill="#3B3B3B"/>
<path d="M72.8992 101.462C73.3537 102.708 71.4801 103.422 69.7572 104.444C67.0986 106.025 66.952 106.331 65.4027 106.523C64.2975 106.66 62.6305 106.05 63.0002 105.446C63.8554 104.053 65.2601 103.61 67.4767 102.135C68.9268 101.17 69.5817 100.49 70.6125 100.466C71.4677 100.444 72.5584 100.527 72.8992 101.464V101.462Z" fill="#696969"/>
<path d="M54.9935 67.3766L51.2731 83.1511C51.1698 83.5877 51.1368 84.0386 51.1781 84.4874L52.5229 99.5989C52.6344 100.752 53.69 101.657 55.0823 101.647C57.6789 101.625 59.3728 100.358 59.3646 99.4704L59.3109 84.7098L65.9336 69.0332L54.9955 67.3786L54.9935 67.3766Z" fill="#244061"/>
<path d="M61.7649 69.0985C61.7649 69.0985 62.2194 82.078 62.4239 86.3787C62.6098 90.2795 66.198 101.972 66.198 101.972C67.0738 104.577 72.1431 103.22 72.8785 101.4C72.8785 101.4 70.7178 90.0346 70.662 86.1298C70.598 81.825 73.0603 68.5986 73.0603 68.5986L61.767 69.1005L61.7649 69.0985Z" fill="#315680"/>
<path d="M59.377 41.8643C60.1557 39.8956 62.4053 38.9244 64.3987 39.6936L65.8179 40.2424L59.8479 55.3151" fill="#F16522"/>
<path d="M77.8797 48.9151C77.8797 48.9151 75.6487 54.6337 73.9341 61.8416C73.2834 64.5795 74.4299 66.7135 73.3454 69.3616C71.6907 73.4052 60.4532 69.5024 56.425 67.9498C55.5904 67.6275 55.1132 66.7625 55.2847 65.8933L59.9285 42.3478C60.4594 38.0818 65.5596 36.9903 69.625 38.5225C71.2012 39.1162 73.0872 40.2526 74.5311 41.1543C77.1091 42.7681 78.2515 45.9222 77.8797 48.9131V48.9151Z" fill="#FFCB05"/>
<mask id="mask0_906_5815" style="mask-type:luminance" maskUnits="userSpaceOnUse" x="54" y="37" width="25" height="35">
<path d="M78.4105 48.9152C78.4105 48.9152 75.9213 54.6093 74.0559 61.805C73.3474 64.5388 74.7087 66.6932 73.4982 69.3291C71.2383 74.25 54.134 69.1842 54.134 69.1842L57.526 42.0541C58.0693 37.7902 63.9545 36.7742 68.685 38.3716C70.5194 38.9919 72.7194 40.1588 74.4051 41.0851C77.4148 42.7417 78.7885 45.9202 78.4084 48.9111L78.4105 48.9152Z" fill="white"/>
</mask>
<g mask="url(#mask0_906_5815)">
<path d="M71.4157 43.472C72.3742 42.5539 75.4935 42.0806 77.3671 42.8538L77.9125 41.6155C75.6464 40.6811 71.8743 41.1381 70.4345 42.5172C67.7656 45.0735 66.2762 51.9489 66.1192 55.356C66.0861 56.0598 67.2905 55.3294 67.2863 55.6538" fill="#FFF100"/>
<path d="M61.112 53.7136C61.174 48.7478 62.0251 42.1989 64.223 40.0955C65.1795 39.1774 68.2966 38.7062 70.1744 39.4753L70.7197 38.2369C68.4536 37.3066 64.6795 37.7636 63.2418 39.1387C60.0213 42.2214 59.7424 51.8081 59.7197 53.6973" fill="#FFF100"/>
<path d="M69.9429 57.3431C70.6928 57.3206 71.2361 57.1554 71.5893 56.8453L70.6494 55.8517C70.6494 55.8517 70.3685 56.0863 69.1042 55.966C65.7743 55.6416 59.3622 52.4916 58.3005 51.0839L57.8026 53.5565C59.2011 55.407 65.4396 56.9636 68.9658 57.3064C69.3253 57.341 69.6516 57.3533 69.945 57.3451L69.9429 57.3431Z" fill="#FFF100"/>
<path d="M68.3834 65.9362C71.011 65.8587 73.6675 65.0712 74.6219 63.3085L74.2707 62.37C73.4713 63.8491 69.4617 64.7529 66.927 64.5591C62.149 64.1919 57.2718 60.134 56.6128 59.2608L56.3815 60.3972C57.1045 61.354 61.4322 65.4853 66.8175 65.8995C67.3298 65.9403 67.8566 65.9525 68.3854 65.9362H68.3834Z" fill="#FFF100"/>
</g>
<path d="M69.0797 41.8521C67.1235 42.3826 64.2562 40.3404 64.7272 36.6334L66.01 32.3552L71.3376 32.4592L71.1971 39.5202C70.9864 40.6015 70.3791 41.4971 69.0797 41.8501V41.8521Z" fill="#8A5D3B"/>
<path d="M68.4702 26.502C65.5472 25.7961 62.1677 26.8855 61.329 31.0495C60.8497 33.4201 60.6741 37.2475 61.8433 38.9837C62.9031 40.5587 67.3258 39.408 69.4741 37.6984C71.0358 36.4539 71.732 35.342 72.2856 33.7486C73.68 29.7336 71.3953 27.2078 68.4723 26.4999L68.4702 26.502Z" fill="#A87C4F"/>
<path d="M68.5488 25.9775C66.1009 25.3859 60.9242 26.2591 61.6678 29.5417C61.6988 29.6764 62.5313 28.6706 63.7191 28.3666C64.7664 28.0973 65.8137 28.7726 66.5037 29.6356C67.0491 30.3149 67.2598 33.3425 67.3093 34.0403C67.5882 34.2341 67.8609 34.4197 68.1232 34.5931C69.1499 34.7094 68.7615 33.0283 69.4267 32.4428C69.8006 32.1123 70.3728 32.2776 70.6352 32.4367C71.5379 32.9855 70.3955 34.1423 69.9225 35.3092C69.7366 35.7662 69.4536 37.1311 69.7779 37.3086C70.0568 37.4616 70.1476 37.5187 70.3191 37.331C71.2797 36.2783 72.1452 34.9645 72.5563 33.7812C73.9507 29.7661 71.4718 26.6794 68.5488 25.9735V25.9775Z" fill="#231F20"/>
<path d="M65.7745 68.9434C65.5349 68.5599 64.8367 67.4745 64.6693 67.2052C63.9877 67.6112 63.4692 67.093 62.68 67.0787C61.9529 67.0645 61.0791 67.4664 60.9242 67.5847C60.6494 67.7928 59.8169 68.4048 59.8169 68.4048C59.7033 68.6497 59.9987 68.7231 60.1413 68.7517C60.416 68.8068 60.8994 68.4559 60.8994 68.4559C61.075 68.362 61.3662 68.1967 61.5501 68.26C61.5893 68.3192 60.5833 68.7476 59.7281 69.5473C59.3005 69.9472 58.9225 70.2124 58.7965 70.4307C58.6973 70.798 59.189 71.2937 59.4368 71.5753C59.7302 71.9078 60.3933 72.0037 61.0708 72.0302C61.7918 72.0588 63.3204 71.0203 63.8389 70.7551" fill="#A87C4F"/>
<path d="M70.6351 46.5098L69.7944 57.0595C69.7944 57.0595 64.7106 64.1287 63.0146 66.4851C62.9134 66.6258 63.0312 66.7625 63.0828 66.9278C63.4443 68.105 64.8345 69.4413 66.6441 69.9125C66.8177 69.9574 66.9932 69.9941 67.1027 69.8534C68.8235 67.6296 72.9653 63.4738 74.7769 61.2704C75.2541 60.689 75.5557 59.9851 75.7044 59.2527C76.3035 56.3251 78.1007 47.5442 78.1007 47.5442C78.5427 45.3837 77.0017 43.319 74.7831 43.0946C72.674 42.8824 70.8024 44.4248 70.6351 46.5119V46.5098Z" fill="#F16522"/>
<path d="M65.6445 40.5913L64.7004 45.1368L67.3797 41.1258L65.6445 40.5913Z" fill="#8A5D3B"/>
<path d="M66.0387 23.4772L57.2354 13.0011L48.6483 20.0395L57.4516 30.5156L66.0387 23.4772Z" fill="#ED1C24"/>
</svg>
